<?xml version="1.0" standalone="no"?>
<!DOCTYPE svg PUBLIC "-//W3C//DTD SVG 1.1//EN" "http://www.w3.org/Graphics/SVG/1.1/DTD/svg11.dtd" >
<svg xmlns="http://www.w3.org/2000/svg" xmlns:xlink="http://www.w3.org/1999/xlink" version="1.1">
<metadata>
Created by FontForge 20160407 at Wed Aug  3 21:30:41 2016
 By Jimmy Wärting
Copyright (c) 2012 by Svet Simov. All rights reserved.
</metadata>
<defs>
<font id="NexaRegular" horiz-adv-x="693" >
  <font-face 
    font-family="Nexa Regular"
    font-weight="400"
    font-stretch="normal"
    units-per-em="1000"
    panose-1="2 0 5 0 0 0 0 0 0 0"
    ascent="750"
    descent="-250"
    x-height="494"
    cap-height="700"
    bbox="-152 -296 1076.5 944"
    underline-thickness="50"
    underline-position="-100"
    stemh="80"
    stemv="84"
    unicode-range="U+000D-FB02"
  />
<missing-glyph horiz-adv-x="639" 
d="M37 700h538v-700h-538v700zM187 446l1 -1c0 67 61 90 115 90c56 0 124 -16 125 -91c0 -57 -39 -69 -77 -84c-62 -24 -90 -53 -90 -149h60c0 63 8 80 55 98c41 20 113 37 112 136c0 109 -93 146 -185 146c-90 0 -176 -41 -176 -145h60zM251 129c0 -54 78 -54 78 -1
c0 54 -78 54 -78 1z" />
    <glyph glyph-name=".notdef" horiz-adv-x="639" 
d="M37 700h538v-700h-538v700zM187 446l1 -1c0 67 61 90 115 90c56 0 124 -16 125 -91c0 -57 -39 -69 -77 -84c-62 -24 -90 -53 -90 -149h60c0 63 8 80 55 98c41 20 113 37 112 136c0 109 -93 146 -185 146c-90 0 -176 -41 -176 -145h60zM251 129c0 -54 78 -54 78 -1
c0 54 -78 54 -78 1z" />
    <glyph glyph-name="A" unicode="A" horiz-adv-x="760" 
d="M331 700h98l314 -700h-94l-69 154h-400l-68 -154h-95zM546 234l-166 378l-166 -378h332z" />
    <glyph glyph-name="Aacute" unicode="&#xc1;" horiz-adv-x="760" 
d="M337 776l75 128h100v-3l-100 -130h-75v5zM331 700h98l314 -700h-94l-69 154h-400l-68 -154h-95zM546 234l-166 378l-166 -378h332z" />
    <glyph glyph-name="Abreve" unicode="&#x102;" horiz-adv-x="760" 
d="M516 903h-3c4 -87 -58 -134 -136 -134c-80 0 -141 48 -137 134h67c0 -37 20 -71 72 -71c50 0 70 34 70 71h67zM331 700h98l314 -700h-94l-69 154h-400l-68 -154h-95zM546 234l-166 378l-166 -378h332z" />
    <glyph glyph-name="Acircumflex" unicode="&#xc2;" horiz-adv-x="760" 
d="M353 896h52l145 -135v-7h-85l-86 80l-86 -80h-85v7zM331 700h98l314 -700h-94l-69 154h-400l-68 -154h-95zM546 234l-166 378l-166 -378h332z" />
    <glyph glyph-name="Adieresis" unicode="&#xc4;" horiz-adv-x="760" 
d="M318 816c0 -69 -107 -69 -107 1s107 70 107 -1zM548 816c0 -70 -107 -70 -107 0c0 71 107 71 107 0zM331 700h98l314 -700h-94l-69 154h-400l-68 -154h-95zM546 234l-166 378l-166 -378h332z" />
    <glyph glyph-name="Agrave" unicode="&#xc0;" horiz-adv-x="760" 
d="M242 901v3h101l74 -127v-5h-75zM331 700h98l314 -700h-94l-69 154h-400l-68 -154h-95zM546 234l-166 378l-166 -378h332z" />
    <glyph glyph-name="Amacron" unicode="&#x100;" horiz-adv-x="760" 
d="M208 852h334v-71h-334v71zM331 700h98l314 -700h-94l-69 154h-400l-68 -154h-95zM546 234l-166 378l-166 -378h332z" />
    <glyph glyph-name="Aogonek" unicode="&#x104;" horiz-adv-x="761" 
d="M744 -1v-2c-31 3 -60 4 -85 0c-86 -15 -84 -106 -2 -102c24 1 52 13 72 38l45 -31c-22 -40 -68 -61 -112 -66c-157 -18 -188 181 -29 207l-51 111h-403l-68 -154h-94l314 700h98zM547 233l-167 378l-166 -378h333z" />
    <glyph glyph-name="Aring" unicode="&#xc5;" horiz-adv-x="760" 
d="M329 694c-40 15 -66 48 -66 98c0 71 58 108 118 108c58 0 118 -36 118 -108c0 -50 -28 -84 -68 -98l312 -694h-92l-70 154h-402l-68 -154h-94zM379 848h2c-78 0 -78 -111 -1 -111c81 0 79 111 -1 111zM547 237l-165 387l-165 -387h330z" />
    <glyph glyph-name="Aringacute" unicode="&#x1fa;" horiz-adv-x="760" 
d="M333 859l78 85h107v-3l-106 -86h-79v4zM439 676l-1 -2c28 13 48 38 48 73c0 57 -54 87 -108 87s-107 -30 -107 -86c0 -35 19 -60 49 -73l-303 -675h97l68 154h395l69 -154h97zM377 786c72 0 74 -84 0 -84c-71 0 -71 84 0 84zM379 603l161 -368h-323z" />
    <glyph glyph-name="Atilde" unicode="&#xc3;" horiz-adv-x="760" 
d="M229 800l1 1c15 60 64 91 121 71c11 -3 45 -23 55 -26c22 -8 46 -5 58 27l55 -23c-17 -70 -72 -92 -120 -73c-12 3 -46 25 -56 28c-22 9 -47 4 -60 -30zM331 700h98l314 -700h-94l-69 154h-400l-68 -154h-95zM546 234l-166 378l-166 -378h332z" />
    <glyph glyph-name="AE" unicode="&#xc6;" horiz-adv-x="921" 
d="M417 700h441v-83h-332v-225h316v-82h-316v-225h341v-85h-424v200h-237l-121 -200h-102zM443 279v255l1 70l-189 -325h188z" />
    <glyph glyph-name="AEacute" unicode="&#x1fc;" horiz-adv-x="921" 
d="M463 784l75 128h100v-3l-100 -130h-75v5zM85 0l121 200h237v-200h424v85h-341v225h316v82h-316v225h332v83h-441l-434 -700h102zM444 604l-1 -70v-255h-188z" />
    <glyph glyph-name="B" unicode="B" horiz-adv-x="707" 
d="M93 700h306c127 0 235 -63 235 -196c0 -64 -37 -118 -104 -144c85 -24 126 -102 126 -167c0 -149 -125 -193 -257 -193h-306v700zM180 621v-222h223c84 0 145 31 145 104c0 78 -63 118 -149 118h-219zM180 320v-238h219c73 0 170 19 170 114c-1 88 -90 124 -166 124h-223
z" />
    <glyph glyph-name="C" unicode="C" horiz-adv-x="710" 
d="M675 93c-71 -70 -164 -104 -260 -104c-247 0 -364 171 -365 357c-2 185 119 365 365 365c93 0 185 -35 256 -105l-60 -56c-54 53 -125 78 -196 78c-188 0 -279 -136 -278 -281c2 -142 89 -275 278 -275c71 0 146 28 199 81z" />
    <glyph glyph-name="Cacute" unicode="&#x106;" horiz-adv-x="708" 
d="M357 786l73 124h99v-3l-98 -126h-74v5zM613 153l1 -2c-54 -53 -129 -81 -200 -81c-189 0 -276 133 -278 276c-1 145 90 281 278 281c71 0 142 -25 196 -78l60 56c-71 70 -163 105 -256 105c-246 0 -367 -180 -365 -365c1 -186 118 -357 365 -357c96 0 189 34 260 105z
" />
    <glyph glyph-name="Ccaron" unicode="&#x10c;" horiz-adv-x="710" 
d="M241 902v7h83l82 -76l85 76h80v-7l-140 -125h-51zM675 93c-71 -70 -164 -104 -260 -104c-247 0 -364 171 -365 357c-2 185 119 365 365 365c93 0 185 -35 256 -105l-60 -56c-54 53 -125 78 -196 78c-188 0 -279 -136 -278 -281c2 -142 89 -275 278 -275
c71 0 146 28 199 81z" />
    <glyph glyph-name="Ccedilla" unicode="&#xc7;" horiz-adv-x="710" 
d="M414 -61l2 2c87 1 110 -58 99 -107c-13 -56 -66 -83 -118 -83c-45 0 -92 20 -116 60l40 35c18 -26 46 -37 74 -36c25 1 48 12 55 34c11 37 -33 68 -91 47l-16 13l25 88c-214 20 -317 180 -318 354c-2 185 119 365 365 365c93 0 185 -35 256 -105l-60 -56
c-54 53 -125 78 -196 78c-188 0 -279 -136 -278 -281c2 -142 89 -275 278 -275c71 0 146 28 199 81l61 -60c-68 -68 -156 -102 -248 -105z" />
    <glyph glyph-name="Ccircumflex" unicode="&#x108;" horiz-adv-x="710" 
d="M382 918h52l142 -132v-6h-84l-85 77l-83 -77h-84v6zM675 93c-71 -70 -164 -104 -260 -104c-247 0 -364 171 -365 357c-2 185 119 365 365 365c93 0 185 -35 256 -105l-60 -56c-54 53 -125 78 -196 78c-188 0 -279 -136 -278 -281c2 -142 89 -275 278 -275
c71 0 146 28 199 81z" />
    <glyph glyph-name="Cdotaccent" unicode="&#x10a;" horiz-adv-x="708" 
d="M359 836c0 70 105 70 105 1c0 -70 -105 -70 -105 -1zM613 153l1 -2c-54 -53 -129 -81 -200 -81c-189 0 -276 133 -278 276c-1 145 90 281 278 281c71 0 142 -25 196 -78l60 56c-71 70 -163 105 -256 105c-246 0 -367 -180 -365 -365c1 -186 118 -357 365 -357
c96 0 189 34 260 105z" />
    <glyph glyph-name="D" unicode="D" horiz-adv-x="750" 
d="M93 700v1h255c238 0 352 -170 352 -343c0 -179 -107 -358 -352 -358h-255v700zM348 87c186 0 265 138 265 272c0 130 -86 258 -265 258h-168v-530h168z" />
    <glyph glyph-name="Eth" unicode="&#xd0;" horiz-adv-x="754" 
d="M30 384h69v316h246c237 0 357 -162 359 -339c2 -185 -112 -361 -359 -361h-246v306h-69v78zM345 83c186 0 272 130 271 276c-2 143 -91 259 -271 259h-159v-234h150v-78h-150v-223h159z" />
    <glyph glyph-name="Dcaron" unicode="&#x10e;" horiz-adv-x="750" 
d="M161 900v7h82l82 -77l85 77h80v-7l-140 -128h-50zM93 700v1h255c238 0 349 -170 352 -343c4 -178 -107 -358 -352 -358h-255v700zM348 87c186 0 267 138 264 272c-3 129 -85 258 -264 258h-168v-530h168z" />
    <glyph glyph-name="Dcroat" unicode="&#x110;" horiz-adv-x="756" 
d="M35 389v1h64v311h255c238 0 349 -170 352 -343c4 -178 -107 -358 -352 -358h-255v314h-64v75zM354 87c186 0 267 138 264 272c-3 129 -85 258 -264 258h-168v-227h129v-75h-129v-228h168z" />
    <glyph glyph-name="E" unicode="E" horiz-adv-x="651" 
d="M93 0v700h492v-80h-406v-219h389v-81h-389v-237h422v-83h-508z" />
    <glyph glyph-name="Eacute" unicode="&#xc9;" horiz-adv-x="651" 
d="M289 774l75 127h101v-3l-101 -129h-75v5zM93 0v700h492v-80h-406v-219h389v-81h-389v-237h422v-83h-508z" />
    <glyph glyph-name="Ebreve" unicode="&#x114;" horiz-adv-x="651" 
d="M493 902h-1c4 -84 -59 -130 -138 -130c-81 0 -142 46 -138 130h68c0 -36 20 -69 71 -69c50 0 70 33 70 69h68zM93 0v700h492v-80h-406v-219h389v-81h-389v-237h422v-83h-508z" />
    <glyph glyph-name="Ecaron" unicode="&#x11a;" horiz-adv-x="651" 
d="M174 895v7h84l84 -77l86 77h83v-7l-144 -127h-51zM93 0v700h492v-80h-406v-219h389v-81h-389v-237h422v-83h-508z" />
    <glyph glyph-name="Ecircumflex" unicode="&#xca;" horiz-adv-x="651" 
d="M324 911h52l145 -134v-7h-85l-86 79l-85 -79h-85v7zM93 0v700h492v-80h-406v-219h389v-81h-389v-237h422v-83h-508z" />
    <glyph glyph-name="Edieresis" unicode="&#xcb;" horiz-adv-x="651" 
d="M183 827c0 71 107 71 107 1s-107 -70 -107 -1zM413 827c0 71 107 71 107 0c0 -70 -107 -70 -107 0zM93 0v700h492v-80h-406v-219h389v-81h-389v-237h422v-83h-508z" />
    <glyph glyph-name="Edotaccent" unicode="&#x116;" horiz-adv-x="651" 
d="M298 829c0 69 110 69 110 0s-110 -69 -110 0zM93 0v700h492v-80h-406v-219h389v-81h-389v-237h422v-83h-508z" />
    <glyph glyph-name="Egrave" unicode="&#xc8;" horiz-adv-x="651" 
d="M226 909v2h101l74 -127v-5h-75zM93 0v700h492v-80h-406v-219h389v-81h-389v-237h422v-83h-508z" />
    <glyph glyph-name="Emacron" unicode="&#x112;" horiz-adv-x="651" 
d="M179 856h334v-71h-334v71zM93 0v700h492v-80h-406v-219h389v-81h-389v-237h422v-83h-508z" />
    <glyph glyph-name="Eogonek" unicode="&#x118;" horiz-adv-x="652" 
d="M601 0l3 1c-100 1 -141 -45 -132 -76c5 -17 24 -31 51 -31c26 0 58 11 79 38l47 -31c-24 -45 -77 -73 -127 -75c-62 -2 -110 27 -119 73c-7 31 4 77 53 101h-363v700h493v-82h-407v-217h390v-80h-390v-239h422v-82z" />
    <glyph glyph-name="F" unicode="F" horiz-adv-x="626" 
d="M93 700h486v-83h-399v-244h382v-81h-382v-293h-87v701z" />
    <glyph glyph-name="G" unicode="G" horiz-adv-x="745" 
d="M672 609l-50 -58c-55 53 -136 82 -207 82c-180 0 -278 -135 -278 -289c0 -142 90 -275 280 -275c66 0 133 21 191 71v166h-218v77h297v-277c-71 -76 -158 -119 -271 -119c-249 0 -365 169 -365 357c-1 209 136 370 364 370c93 0 186 -35 257 -105z" />
    <glyph glyph-name="Gbreve" unicode="&#x11e;" horiz-adv-x="745" 
d="M551 908l-3 2c4 -83 -59 -128 -139 -128c-81 0 -143 45 -139 127h68c0 -35 20 -67 72 -68c51 0 72 32 72 67h69zM618 554l4 -1c-55 53 -133 81 -204 81c-180 0 -279 -134 -279 -288c0 -142 88 -274 278 -274c66 0 130 20 188 70v164h-215v79h297v-277
c-71 -76 -158 -119 -271 -119c-249 0 -365 169 -365 357c-1 209 136 370 364 370c93 0 186 -35 257 -105z" />
    <glyph glyph-name="Gcircumflex" unicode="&#x11c;" horiz-adv-x="742" 
d="M373 917h51l141 -132v-6h-84l-83 77l-83 -77h-84v6zM683 107l4 -1c-71 -76 -158 -119 -271 -119c-249 0 -365 169 -365 357c-1 209 136 370 364 370c93 0 186 -35 257 -105l-54 -57c-55 53 -133 81 -204 81c-180 0 -279 -134 -279 -288c0 -142 88 -274 278 -274
c66 0 130 20 188 70v164h-215v79h297v-277z" />
    <glyph glyph-name="Gcommaaccent" unicode="&#x122;" horiz-adv-x="745" 
d="M618 552l4 -1c-55 53 -133 81 -204 81c-180 0 -279 -134 -279 -288c0 -142 88 -274 278 -274c66 0 130 20 188 70v164h-215v79h297v-277c-71 -76 -158 -119 -271 -119c-249 0 -365 169 -365 357c-1 209 136 370 364 370c93 0 186 -35 257 -105zM409 -174l1 1
c-22 4 -38 20 -38 44c0 70 107 68 107 -1c0 -11 -29 -88 -44 -117h-55z" />
    <glyph glyph-name="Gdotaccent" unicode="&#x120;" horiz-adv-x="744" 
d="M358 833c0 68 109 68 109 0c0 -67 -109 -67 -109 0zM672 608h-1c-71 70 -164 105 -257 105c-228 0 -365 -161 -365 -370c0 -188 116 -357 365 -357c113 0 200 43 271 119v277h-297v-79h215v-163c-58 -50 -122 -70 -188 -70c-190 0 -278 132 -278 275
c-1 154 98 288 278 288c71 0 149 -28 203 -82z" />
    <glyph glyph-name="H" unicode="H" horiz-adv-x="760" 
d="M580 0v316h-400v-316h-87v700h87v-303h400v303h87v-700h-87z" />
    <glyph glyph-name="Hbar" unicode="&#x126;" horiz-adv-x="776" 
d="M588 0v302h-400v-302h-89v526h-70v60h70v114h89v-114h400v114h89v-114h71v-60h-71v-526h-89zM588 384v142h-400v-142h400z" />
    <glyph glyph-name="Hcircumflex" unicode="&#x124;" horiz-adv-x="764" 
d="M358 911h52l142 -133v-7h-84l-84 78l-84 -78h-84v7zM93 700h89v-316h400v316h89v-700h-89v302h-400v-302h-89v700z" />
    <glyph glyph-name="I" unicode="I" horiz-adv-x="273" 
d="M93 0v700h87v-700h-87z" />
    <glyph glyph-name="IJ" unicode="&#x132;" horiz-adv-x="961" 
d="M93 0v700h87v-700h-87zM876 280c3 -177 -114 -293 -289 -293c-168 0 -290 110 -290 289h86c0 -127 80 -207 204 -207c125 0 203 83 203 211v340h-245v80h331v-420z" />
    <glyph glyph-name="Iacute" unicode="&#xcd;" horiz-adv-x="274" 
d="M95 776l75 127h101v-3l-101 -129h-75v5zM181 0v700h-88v-700h88z" />
    <glyph glyph-name="Ibreve" unicode="&#x12c;" horiz-adv-x="274" 
d="M270 897h-1c5 -84 -54 -123 -130 -123c-78 0 -135 43 -130 124h65c0 -35 16 -63 66 -63c48 0 66 27 66 62h64zM93 0v700h88v-700h-88z" />
    <glyph glyph-name="Icircumflex" unicode="&#xce;" horiz-adv-x="274" 
d="M111 900h50l137 -134v-7h-82l-80 79l-79 -79h-83v7zM93 700h88v-700h-88v700z" />
    <glyph glyph-name="Idieresis" unicode="&#xcf;" horiz-adv-x="274" 
d="M-10 818c0 71 107 71 107 0c0 -70 -107 -70 -107 0zM175 817c0 71 107 71 107 1s-107 -70 -107 -1zM181 -1v700h-88v-700h88z" />
    <glyph glyph-name="Idotaccent" unicode="&#x130;" horiz-adv-x="274" 
d="M84 829c0 71 108 71 108 -1c0 -71 -108 -71 -108 1zM181 0v700h-88v-700h88z" />
    <glyph glyph-name="Igrave" unicode="&#xcc;" horiz-adv-x="274" 
d="M181 777v-5h-76l-100 129v3h101zM93 0v700h88v-700h-88z" />
    <glyph glyph-name="Imacron" unicode="&#x12a;" horiz-adv-x="274" 
d="M6 848h262v-69h-262v69zM93 0v700h88v-700h-88z" />
    <glyph glyph-name="Iogonek" unicode="&#x12e;" horiz-adv-x="276" 
d="M273 -99v1c-23 -43 -71 -65 -118 -67c-64 -2 -112 30 -122 78c-8 38 6 90 62 111v676h88v-700c-66 1 -97 -32 -86 -68c6 -19 27 -35 56 -34c24 0 54 9 74 35z" />
    <glyph glyph-name="Itilde" unicode="&#x128;" horiz-adv-x="274" 
d="M0 804l-2 2c14 58 61 89 115 69c11 -3 44 -23 54 -25c20 -8 42 -4 52 26l52 -23c-15 -68 -66 -89 -112 -71c-11 3 -43 24 -52 27c-21 8 -45 3 -57 -29zM93 2v700h88v-700h-88z" />
    <glyph glyph-name="J" unicode="J" horiz-adv-x="688" 
d="M603 280c3 -177 -114 -293 -289 -293c-168 0 -290 110 -290 289h86c0 -127 80 -207 204 -207c125 0 203 83 203 211v340h-245v80h331v-420z" />
    <glyph glyph-name="Jcircumflex" unicode="&#x134;" horiz-adv-x="689" 
d="M234 781l142 133h52l142 -133v-6h-84l-84 77l-84 -77h-84v6zM603 280l3 -1c0 -176 -117 -292 -292 -292c-168 0 -290 110 -290 289h86c0 -127 79 -205 203 -205c125 0 202 81 202 209v339h-243v81h331v-420z" />
    <glyph glyph-name="K" unicode="K" horiz-adv-x="628" 
d="M93 0v700h86v-309l310 309h109v-5l-336 -332l366 -357v-6h-108l-341 329v-329h-86z" />
    <glyph glyph-name="Kcommaaccent" unicode="&#x136;" horiz-adv-x="626" 
d="M91 700h89v-309l307 309h109v-5l-333 -332l363 -357v-6h-111l-335 329v-328h-89v699zM321 -160l2 -1c-22 4 -38 20 -38 45c0 70 107 68 107 -1c0 -11 -29 -88 -45 -116h-55z" />
    <glyph glyph-name="L" unicode="L" horiz-adv-x="579" 
d="M180 700v-619h381v-81h-468v700h87z" />
    <glyph glyph-name="Lacute" unicode="&#x139;" horiz-adv-x="579" 
d="M112 783l73 123h98v-3l-97 -125h-74v5zM93 700v-700h468v83h-379v617h-89z" />
    <glyph glyph-name="Lcaron" unicode="&#x13d;" horiz-adv-x="582" 
d="M182 700v-617h379v-83h-468v700h89zM414 696h85l-64 -177h-64z" />
    <glyph glyph-name="Lcommaaccent" unicode="&#x13b;" horiz-adv-x="579" 
d="M182 700v-617h379v-83h-468v700h89zM323 -168l2 1c-22 4 -38 20 -38 44c0 70 107 68 107 -1c0 -11 -29 -88 -45 -117h-55z" />
    <glyph glyph-name="Ldot" unicode="&#x13f;" horiz-adv-x="581" 
d="M182 700v-617h379v-83h-468v700h89zM318 306c0 74 112 74 112 0s-112 -74 -112 0z" />
    <glyph glyph-name="Lslash" unicode="&#x141;" horiz-adv-x="588" 
d="M100 276l-74 -32v71l74 33v352h89v-311l112 51v-73l-112 -50v-234h379v-83h-468v276z" />
    <glyph glyph-name="M" unicode="M" horiz-adv-x="884" 
d="M705 574l-254 -354h-18l-254 356v-576h-86v700h104l246 -360l244 360h104v-700h-86v574z" />
    <glyph glyph-name="N" unicode="N" horiz-adv-x="762" 
d="M93 700h61l429 -536v536h86v-700h-60l-430 534v-534h-86v700z" />
    <glyph glyph-name="Nacute" unicode="&#x143;" horiz-adv-x="762" 
d="M326 778l73 125h100v-2l-99 -128h-74v5zM183 0v527l426 -527h60v700h-88v-530l-427 530h-61v-700h90z" />
    <glyph glyph-name="Ncaron" unicode="&#x147;" horiz-adv-x="762" 
d="M217 900v7h84l83 -77l86 77h81v-7l-142 -130h-51zM93 700h61l427 -530v530h88v-700h-60l-426 527v-527h-90v700z" />
    <glyph glyph-name="Ncommaaccent" unicode="&#x145;" horiz-adv-x="762" 
d="M93 700h61l427 -530v530h88v-700h-60l-426 527v-527h-90v700zM377 -165l2 1c-22 4 -38 20 -38 44c0 70 107 68 107 -1c0 -11 -29 -88 -45 -117h-55z" />
    <glyph glyph-name="Eng" unicode="&#x14a;" horiz-adv-x="762" 
d="M669 -25v1c1 -113 -36 -182 -146 -182c-35 0 -63 9 -96 28l28 66c22 -12 43 -18 65 -17c60 1 69 43 69 104v50l-406 502v-527h-90v700h61l427 -532v532h88v-725z" />
    <glyph glyph-name="Ntilde" unicode="&#xd1;" horiz-adv-x="762" 
d="M253 801h-3c15 60 64 91 121 71c11 -3 45 -23 55 -25c22 -8 46 -5 57 27l55 -24c-16 -69 -70 -90 -117 -71c-12 3 -45 24 -56 27c-22 9 -47 4 -59 -29zM93 700h61l427 -530v530h88v-700h-60l-426 527v-527h-90v700z" />
    <glyph glyph-name="O" unicode="O" horiz-adv-x="809" 
d="M406 712c237 -1 355 -179 354 -364c-1 -183 -115 -362 -355 -362s-356 178 -356 362c0 203 136 364 357 364zM673 348c1 142 -84 282 -267 284c-178 0 -270 -131 -270 -284c0 -142 86 -280 270 -280s267 142 267 280z" />
    <glyph glyph-name="Oacute" unicode="&#xd3;" horiz-adv-x="810" 
d="M364 784l74 128h101v-3l-100 -130h-75v5zM406 712c-221 0 -357 -161 -357 -364c0 -185 116 -363 356 -363s354 179 356 362c1 186 -117 364 -355 365zM137 347l-1 -1c-2 153 93 284 270 284c183 -1 268 -141 267 -283c-1 -139 -84 -279 -268 -279s-267 140 -268 279z" />
    <glyph glyph-name="Obreve" unicode="&#x14e;" horiz-adv-x="809" 
d="M542 908v1c4 -83 -59 -128 -139 -128c-81 0 -143 45 -139 127h68c0 -35 20 -66 71 -66c50 0 71 31 71 66h68zM406 713c237 -1 355 -179 354 -364c-1 -183 -115 -362 -355 -362s-356 178 -356 362c0 203 136 364 357 364zM673 348l1 1c1 142 -84 282 -267 284
c-178 0 -273 -131 -270 -284c2 -139 85 -279 269 -279s267 140 267 278z" />
    <glyph glyph-name="Ocircumflex" unicode="&#xd4;" horiz-adv-x="809" 
d="M388 919h52l145 -135v-6h-85l-86 79l-86 -79h-85v6zM49 348c0 203 136 364 357 364c237 -1 355 -179 354 -364c-1 -183 -115 -362 -355 -362s-356 178 -356 362zM673 347l1 1c1 142 -84 282 -267 284c-178 0 -273 -131 -270 -284c2 -139 85 -279 269 -279
s267 140 267 278z" />
    <glyph glyph-name="Odieresis" unicode="&#xd6;" horiz-adv-x="810" 
d="M247 829c0 71 107 71 107 0c0 -70 -107 -70 -107 0zM475 828c0 71 107 71 107 1s-107 -70 -107 -1zM406 711c-221 0 -357 -161 -357 -364c0 -185 116 -363 356 -363s354 179 356 362c1 186 -117 364 -355 365zM137 346l-1 -1c-2 153 93 284 270 284
c183 -1 268 -141 267 -283c-1 -139 -84 -279 -268 -279s-267 140 -268 279z" />
    <glyph glyph-name="Ograve" unicode="&#xd2;" horiz-adv-x="809" 
d="M281 911v3h101l74 -127v-5h-75zM406 712c237 -1 355 -179 354 -364c-1 -183 -115 -362 -355 -362s-356 178 -356 362c0 203 136 364 357 364zM673 347l1 1c1 142 -84 282 -267 284c-178 0 -273 -131 -270 -284c2 -139 85 -279 269 -279s267 140 267 278z" />
    <glyph glyph-name="Ohungarumlaut" unicode="&#x150;" horiz-adv-x="809" 
d="M279 783l77 120h91l-97 -120h-71zM505 903h92l-99 -121h-70zM49 348c0 203 136 364 357 364c237 -1 355 -179 354 -364c-1 -183 -115 -362 -355 -362s-356 178 -356 362zM673 347l1 1c1 142 -84 282 -267 284c-178 0 -273 -131 -270 -284c2 -139 85 -279 269 -279
s267 140 267 278z" />
    <glyph glyph-name="Omacron" unicode="&#x14c;" horiz-adv-x="809" 
d="M237 867h334v-71h-334v71zM406 712c237 -1 355 -179 354 -364c-1 -183 -115 -362 -355 -362s-356 178 -356 362c0 203 136 364 357 364zM673 347l1 1c1 142 -84 282 -267 284c-178 0 -273 -131 -270 -284c2 -139 85 -279 269 -279s267 140 267 278z" />
    <glyph glyph-name="Oslash" unicode="&#xd8;" horiz-adv-x="810" 
d="M193 49v1c-96 67 -143 181 -143 299c0 186 117 364 356 364c59 0 111 -12 155 -32l47 82h88l-71 -119c91 -69 136 -181 136 -296c-1 -183 -115 -362 -355 -362c-57 0 -106 10 -148 27l-52 -89h-86zM518 610c-32 14 -69 22 -111 22c-185 0 -271 -140 -269 -284
c0 -85 33 -170 99 -222zM301 87c31 -11 66 -17 106 -17c184 0 267 140 267 278c0 84 -30 168 -92 222z" />
    <glyph glyph-name="Oslashacute" unicode="&#x1fe;" horiz-adv-x="810" 
d="M366 789l75 128h100v-3l-100 -129h-75v4zM193 49v1c-96 67 -143 181 -143 299c0 186 117 364 356 364c59 0 111 -12 155 -32l47 82h88l-71 -119c91 -69 136 -181 136 -296c-1 -183 -115 -362 -355 -362c-57 0 -106 10 -148 27l-52 -89h-86zM518 610
c-32 14 -69 22 -111 22c-185 0 -271 -140 -269 -284c0 -85 33 -170 99 -222zM301 87c31 -11 66 -17 106 -17c184 0 267 140 267 278c0 84 -30 168 -92 222z" />
    <glyph glyph-name="Otilde" unicode="&#xd5;" horiz-adv-x="809" 
d="M268 812h-2c15 60 64 91 120 71c11 -3 45 -23 55 -25c22 -8 46 -4 57 28l55 -24c-16 -69 -70 -90 -117 -71c-12 3 -46 25 -57 27c-22 8 -46 3 -58 -30zM49 348c0 203 136 364 357 364c237 -1 355 -179 354 -364c-1 -183 -115 -362 -355 -362s-356 178 -356 362zM673 347
l1 1c1 142 -84 282 -267 284c-178 0 -273 -131 -270 -284c2 -139 85 -279 269 -279s267 140 267 278z" />
    <glyph glyph-name="OE" unicode="&#x152;" horiz-adv-x="987" 
d="M495 0v-1c-28 -6 -58 -10 -90 -10c-238 0 -355 167 -355 362c0 197 118 358 355 358c33 0 79 -7 91 -9h429v-85h-350v-222h332v-83h-332v-224h358v-86h-438zM495 622v1c-27 9 -57 13 -90 13c-179 0 -267 -132 -267 -286c1 -144 90 -285 269 -285c33 0 62 4 88 12v545z
" />
    <glyph glyph-name="P" unicode="P" horiz-adv-x="684" 
d="M179 226v-226h-86v700h318c322 0 322 -473 0 -474h-232zM411 307c206 0 206 312 0 312h-232v-312h232z" />
    <glyph glyph-name="Thorn" unicode="&#xde;" horiz-adv-x="684" 
d="M93 0h1v699h86v-118h231c321 0 321 -463 -1 -463h-230v-118h-87zM411 198c204 0 204 301 0 301h-230v-301h230z" />
    <glyph glyph-name="Q" unicode="Q" horiz-adv-x="813" 
d="M627 59v1c-55 -43 -130 -68 -220 -68c-243 0 -357 175 -357 363c1 185 118 359 357 359c241 0 355 -173 356 -359c0 -83 -25 -169 -75 -235l87 -84l-61 -61zM407 632c-173 -2 -271 -133 -270 -280c0 -143 89 -279 269 -279c181 0 270 140 268 283
c-2 142 -83 276 -267 276z" />
    <glyph glyph-name="R" unicode="R" horiz-adv-x="712" 
d="M568 0l-218 252h-170v-252h-87v700h318c158 0 237 -110 237 -224c1 -106 -57 -205 -201 -217l231 -259h-110zM407 330c105 0 154 65 154 144c1 70 -49 148 -150 148h-231v-292h227z" />
    <glyph glyph-name="Racute" unicode="&#x154;" horiz-adv-x="714" 
d="M288 785l73 124h99v-3l-98 -126h-74v5zM448 259l1 1c144 12 205 111 204 217c-1 114 -83 223 -240 223h-320v-700h89v251h166l224 -251h107zM183 618h1h231c101 0 148 -72 147 -142c-1 -79 -47 -142 -152 -142h-227v284z" />
    <glyph glyph-name="Rcaron" unicode="&#x158;" horiz-adv-x="713" 
d="M171 902v6h85l84 -77l86 77h82v-6l-143 -130h-52zM93 700l-1 -1h320c158 0 240 -109 240 -223c1 -106 -60 -205 -204 -217l231 -259h-107l-224 251h-166v-251h-89v700zM408 332c105 0 151 63 151 142c1 70 -46 142 -147 142h-231v-284h227z" />
    <glyph glyph-name="Rcommaaccent" unicode="&#x156;" horiz-adv-x="713" 
d="M93 700l-1 -1h320c158 0 240 -109 240 -223c1 -106 -60 -205 -204 -217l231 -259h-107l-224 251h-166v-251h-89v700zM408 332c105 0 151 63 151 142c1 70 -46 142 -147 142h-231v-284h227zM356 -166l2 1c-22 4 -38 20 -38 44c0 70 107 68 107 -1c0 -11 -29 -88 -45 -117
h-55z" />
    <glyph glyph-name="S" unicode="S" horiz-adv-x="664" 
d="M532 547c-38 61 -119 89 -197 90c-89 0 -184 -35 -184 -120c0 -76 87 -98 190 -115c140 -22 278 -50 278 -208c-1 -157 -151 -208 -285 -208c-124 0 -242 45 -296 162l72 42c45 -83 139 -123 225 -123c85 0 198 27 198 130c1 87 -97 112 -202 128
c-135 21 -266 52 -266 194c-2 146 147 196 268 196c104 0 203 -21 265 -127z" />
    <glyph glyph-name="Sacute" unicode="&#x15a;" horiz-adv-x="665" 
d="M287 787l74 127h101v-3l-100 -129h-75v5zM599 588l-3 2c-62 105 -161 128 -265 128c-121 0 -270 -52 -268 -198c0 -142 131 -173 266 -195c105 -17 200 -42 200 -129c0 -102 -110 -128 -194 -128c-86 0 -183 38 -221 120l-76 -39c53 -116 171 -161 296 -161
c135 0 285 51 285 208c0 158 -138 188 -278 210c-103 17 -188 36 -188 112c0 85 93 120 182 120c78 -1 153 -25 192 -88z" />
    <glyph glyph-name="Scaron" unicode="&#x160;" horiz-adv-x="664" 
d="M172 915v6h85l86 -80l89 80h83v-6l-146 -135h-53zM526 550l1 -2c-39 63 -114 87 -192 88c-89 0 -182 -35 -182 -120c0 -76 85 -95 188 -112c140 -22 278 -52 278 -210c-1 -157 -151 -208 -285 -208c-124 0 -242 45 -296 162l76 39c38 -81 135 -119 221 -119
c85 0 195 26 195 129c1 87 -94 112 -199 128c-135 21 -266 52 -266 194c-2 146 147 198 268 198c104 0 203 -23 265 -129z" />
    <glyph glyph-name="Scedilla" unicode="&#x15e;" horiz-adv-x="663" 
d="M358 -58l1 -1c87 1 110 -57 99 -106c-14 -55 -68 -80 -121 -79c-45 1 -91 20 -114 58l40 35c18 -25 46 -35 75 -35c26 0 50 10 56 32c11 37 -33 67 -91 47l-17 13l23 80c-114 5 -221 51 -271 160l76 39c38 -81 135 -119 221 -119c85 0 195 26 195 129
c1 87 -94 112 -199 128c-135 21 -266 52 -266 194c-2 146 147 198 268 198c104 0 203 -23 265 -129l-72 -38c-39 63 -114 87 -192 88c-89 0 -182 -35 -182 -120c0 -76 85 -95 188 -112c140 -22 278 -52 278 -210c-1 -143 -125 -198 -248 -207z" />
    <glyph glyph-name="Scircumflex" unicode="&#x15c;" horiz-adv-x="664" 
d="M173 789l145 135h52l145 -135v-6h-85l-86 79l-86 -79h-85v6zM526 550l1 -2c-39 63 -114 87 -192 88c-89 0 -182 -35 -182 -120c0 -76 85 -95 188 -112c140 -22 278 -52 278 -210c-1 -157 -151 -208 -285 -208c-124 0 -242 45 -296 162l76 39c38 -81 135 -119 221 -119
c85 0 195 26 195 129c1 87 -94 112 -199 128c-135 21 -266 52 -266 194c-2 146 147 198 268 198c104 0 203 -23 265 -129z" />
    <glyph glyph-name="Scommaaccent" unicode="&#x218;" horiz-adv-x="664" 
d="M526 550l1 -2c-39 63 -114 87 -192 88c-89 0 -182 -35 -182 -120c0 -76 85 -95 188 -112c140 -22 278 -52 278 -210c-1 -157 -151 -208 -285 -208c-124 0 -242 45 -296 162l76 39c38 -81 135 -119 221 -119c85 0 195 26 195 129c1 87 -94 112 -199 128
c-135 21 -266 52 -266 194c-2 146 147 198 268 198c104 0 203 -23 265 -129zM338 -183l-1 1c-20 5 -34 19 -34 43c0 69 106 67 106 -1c0 -9 -23 -70 -43 -132h-54z" />
    <glyph glyph-name="T" unicode="T" horiz-adv-x="598" 
d="M256 622h-239v78h564v-78h-239v-622h-86v622z" />
    <glyph glyph-name="Tbar" unicode="&#x166;" horiz-adv-x="611" 
d="M142 368h119v251h-239v80h567v-80h-239v-251h122v-67h-122v-301h-89v301h-119v67z" />
    <glyph glyph-name="Tcaron" unicode="&#x164;" horiz-adv-x="603" 
d="M133 900v7h85l86 -80l89 80h83v-7l-146 -134h-53zM257 619h-239v80h567v-80h-239v-619h-89v619z" />
    <glyph glyph-name="U" unicode="U" horiz-adv-x="741" 
d="M655 700l1 -1v-420c0 -194 -131 -292 -284 -292c-149 0 -287 96 -287 292v420h86v-420c0 -139 93 -212 201 -212s198 76 198 213v420h85z" />
    <glyph glyph-name="Uacute" unicode="&#xda;" horiz-adv-x="742" 
d="M323 782l74 127h101v-3l-100 -129h-75v5zM569 700l-2 -1v-420c0 -136 -87 -210 -195 -210s-199 71 -199 211v420h-88v-420c0 -196 138 -292 288 -292c153 0 284 98 284 292v420h-88z" />
    <glyph glyph-name="Ubreve" unicode="&#x16c;" horiz-adv-x="741" 
d="M514 902h-1c4 -87 -58 -134 -137 -134c-80 0 -141 48 -138 134h67c0 -37 20 -71 71 -71c50 0 70 34 70 71h68zM655 700l1 -1v-420c0 -194 -131 -292 -284 -292c-149 0 -287 96 -287 292v420h88v-420c0 -139 91 -210 199 -210s195 74 195 211v420h88z" />
    <glyph glyph-name="Ucircumflex" unicode="&#xdb;" horiz-adv-x="740" 
d="M345 913h53l144 -134v-7h-85l-86 79l-85 -79h-85v7zM655 280l1 -1c0 -194 -131 -292 -284 -292c-149 0 -287 96 -287 292v420h88v-420c0 -139 91 -210 199 -210s195 74 195 211v420h88v-420z" />
    <glyph glyph-name="Udieresis" unicode="&#xdc;" horiz-adv-x="742" 
d="M209 826c0 71 107 71 107 0c0 -70 -107 -70 -107 0zM438 825c0 71 107 71 107 1s-107 -70 -107 -1zM569 698l-2 -1v-419c0 -136 -87 -210 -195 -210s-199 71 -199 211v419h-88v-419c0 -196 138 -292 288 -292c153 0 284 98 284 292v419h-88z" />
    <glyph glyph-name="Ugrave" unicode="&#xd9;" horiz-adv-x="741" 
d="M254 906v3h101l74 -127v-5h-75zM655 700l1 -1v-420c0 -194 -131 -292 -284 -292c-149 0 -287 96 -287 292v420h88v-420c0 -139 91 -210 199 -210s195 74 195 211v420h88z" />
    <glyph glyph-name="Uhungarumlaut" unicode="&#x170;" horiz-adv-x="742" 
d="M325 894h89l-97 -121h-69zM472 893h90l-98 -120h-68zM569 700l-2 -1v-420c0 -136 -87 -210 -195 -210s-199 71 -199 211v420h-88v-420c0 -196 138 -292 288 -292c153 0 284 98 284 292v420h-88z" />
    <glyph glyph-name="Umacron" unicode="&#x16a;" horiz-adv-x="741" 
d="M212 851h324v-70h-324v70zM655 700l1 -1v-420c0 -194 -131 -292 -284 -292c-149 0 -287 96 -287 292v420h88v-420c0 -139 91 -210 199 -210s195 74 195 211v420h88z" />
    <glyph glyph-name="Uogonek" unicode="&#x172;" horiz-adv-x="742" 
d="M655 700h1v-420c0 -146 -74 -237 -174 -274c-36 -15 -51 -52 -36 -80c9 -17 30 -29 58 -28c26 1 59 15 80 42l49 -34c-24 -45 -76 -69 -126 -72c-52 -3 -94 15 -115 46c-23 34 -27 74 -8 108c-158 -5 -299 92 -299 291v420h88v-420c0 -139 91 -210 199 -210
s195 74 195 211v420h88z" />
    <glyph glyph-name="Uring" unicode="&#x16e;" horiz-adv-x="741" 
d="M253 831v-1c0 64 57 97 115 97c57 0 115 -32 115 -97c0 -63 -55 -97 -115 -97c-63 0 -115 35 -115 98zM367 880h1c-76 0 -76 -99 -1 -99c79 0 77 99 0 99zM655 699l1 -1v-420c0 -194 -131 -292 -284 -292c-149 0 -287 96 -287 292v420h88v-420c0 -139 91 -210 199 -210
s195 74 195 211v420h88z" />
    <glyph glyph-name="Utilde" unicode="&#x168;" horiz-adv-x="741" 
d="M238 805l-2 2c15 58 64 88 121 69c12 -3 46 -23 56 -25c21 -8 44 -4 54 26l55 -22c-16 -68 -70 -89 -117 -71c-12 3 -46 24 -56 26c-22 8 -46 4 -58 -29zM655 702l1 -1v-420c0 -194 -131 -292 -284 -292c-149 0 -287 96 -287 292v420h88v-420c0 -139 91 -210 199 -210
s195 74 195 211v420h88z" />
    <glyph glyph-name="V" unicode="V" horiz-adv-x="714" 
d="M20 700h97l239 -598l241 598h96l-289 -702h-94z" />
    <glyph glyph-name="W" unicode="W" horiz-adv-x="1080" 
d="M27 700h98l193 -579l194 579h56l196 -579l191 579h99l-245 -701h-87l-182 524l-181 -524h-88z" />
    <glyph glyph-name="Wacute" unicode="&#x1e82;" horiz-adv-x="1080" 
d="M497 784l71 118h95v-3l-94 -119h-72v4zM359 -1l100 279l81 252l82 -252l100 -279h83l249 701h-99l-191 -579l-196 579h-56l-194 -579l-193 579h-98l250 -701h82z" />
    <glyph glyph-name="Wcircumflex" unicode="&#x174;" horiz-adv-x="1080" 
d="M365 785l149 133h54l149 -133v-7h-89l-88 78l-86 -78h-89v7zM27 700h98l193 -579l194 579h56l196 -579l191 579h99l-249 -701h-83l-100 279l-82 252l-81 -252l-100 -279h-82z" />
    <glyph glyph-name="Wdieresis" unicode="&#x1e84;" horiz-adv-x="1080" 
d="M371 842c0 67 107 67 107 -1c0 -67 -107 -67 -107 1zM601 842c0 67 107 67 107 0s-107 -67 -107 0zM359 0l100 279l81 252l82 -252l100 -279h83l249 701h-99l-191 -579l-196 579h-56l-194 -579l-193 579h-98l250 -701h82z" />
    <glyph glyph-name="Wgrave" unicode="&#x1e80;" horiz-adv-x="1080" 
d="M412 905v2h98l73 -124v-5h-74zM27 700h98l193 -579l194 579h56l196 -579l191 579h99l-249 -701h-83l-100 279l-82 252l-81 -252l-100 -279h-82z" />
    <glyph glyph-name="X" unicode="X" horiz-adv-x="636" 
d="M512 699h99v-3l-237 -339l251 -355v-2h-100l-207 294l-207 -294h-100v2l251 355l-237 339v3h101l192 -283z" />
    <glyph glyph-name="Y" unicode="Y" horiz-adv-x="680" 
d="M294 284l-271 413v3h106l210 -332l215 332h106v-3l-276 -413v-284h-90v284z" />
    <glyph glyph-name="Yacute" unicode="&#xdd;" horiz-adv-x="680" 
d="M289 779l75 127h100v-2l-100 -130h-75v5zM384 0v284l276 413v3h-106l-215 -332l-210 332h-106v-3l271 -413v-284h90z" />
    <glyph glyph-name="Ycircumflex" unicode="&#x176;" horiz-adv-x="680" 
d="M169 784l144 129h52l144 -129v-6h-86l-84 76l-84 -76h-86v6zM294 284l-271 413v3h106l210 -332l215 332h106v-3l-276 -413v-284h-90v284z" />
    <glyph glyph-name="Ydieresis" unicode="&#x178;" horiz-adv-x="680" 
d="M283 823c0 -66 -101 -66 -101 0c0 67 101 67 101 0zM501 823c0 -66 -101 -66 -101 0c0 67 101 67 101 0zM384 284l276 413v3h-106l-215 -332l-210 332h-106v-3l271 -413v-284h90v284z" />
    <glyph glyph-name="Ygrave" unicode="&#x1ef2;" horiz-adv-x="680" 
d="M219 899v2h96l70 -119v-5h-71zM294 284l-271 413v3h106l210 -332l215 332h106v-3l-276 -413v-284h-90v284z" />
    <glyph glyph-name="Z" unicode="Z" horiz-adv-x="607" 
d="M51 700h517v-38l-415 -578h415v-84h-538v47l407 572h-386v81z" />
    <glyph glyph-name="Zacute" unicode="&#x179;" horiz-adv-x="607" 
d="M249 784l74 127h101v-3l-100 -129h-75v5zM51 618h383l-404 -571v-47h538v86h-411l411 576v38h-517v-82z" />
    <glyph glyph-name="Zcaron" unicode="&#x17d;" horiz-adv-x="607" 
d="M138 909v7h87l87 -80l90 80h84v-7l-148 -134h-53zM51 700h517v-38l-415 -578h415v-84h-538v47l407 572h-386v81z" />
    <glyph glyph-name="Zdotaccent" unicode="&#x17b;" horiz-adv-x="607" 
d="M259 835c0 71 108 71 108 0s-108 -71 -108 0zM51 618h383l-404 -571v-47h538v86h-411l411 576v38h-517v-82z" />
    <glyph glyph-name="uni021A" unicode="&#x21a;" horiz-adv-x="603" 
d="M257 619h-239v80h567v-80h-239v-619h-89v619zM284 -181l-1 1c-20 5 -34 19 -34 44c0 69 106 67 106 -2c0 -9 -23 -70 -43 -132h-54z" />
    <glyph glyph-name="a" unicode="a" horiz-adv-x="637" 
d="M483 0l-2 -2l-2 90c-39 -68 -114 -100 -182 -100c-142 0 -253 98 -253 259c0 160 113 256 254 255c74 0 147 -34 183 -98l1 90h80v-494h-79zM302 425l-1 -1c-98 0 -177 -70 -177 -180s79 -181 177 -181c238 0 238 362 1 362z" />
    <glyph glyph-name="aacute" unicode="&#xe1;" horiz-adv-x="636" 
d="M250 581l75 127h100v-3l-100 -129h-75v5zM561 0v2v494h-80l-1 -90c-35 64 -108 98 -182 98c-141 0 -254 -96 -254 -256c0 -161 111 -259 253 -258c69 0 144 32 183 100l2 -90h79zM303 429l-1 1c238 0 238 -362 1 -362c-98 0 -177 71 -177 181s79 180 177 180z" />
    <glyph glyph-name="abreve" unicode="&#x103;" horiz-adv-x="637" 
d="M457 704h-2c4 -87 -58 -134 -137 -134c-80 0 -141 48 -137 134h67c0 -37 20 -71 72 -71c50 0 70 34 70 71h67zM483 0l-2 -2l-2 90c-39 -68 -114 -100 -182 -100c-142 0 -253 98 -253 259c0 160 113 256 254 255c74 0 147 -34 183 -98l1 90h80v-494h-79zM302 425l-1 -1
c-98 0 -177 -70 -177 -180s79 -181 177 -181c238 0 238 362 1 362z" />
    <glyph glyph-name="acircumflex" unicode="&#xe2;" horiz-adv-x="637" 
d="M147 573l145 135h52l145 -135v-7h-85l-86 80l-86 -80h-85v7zM483 0l-2 -2l-2 90c-39 -68 -114 -100 -182 -100c-142 0 -253 98 -253 259c0 160 113 256 254 255c74 0 147 -34 183 -98l1 90h80v-494h-79zM302 425l-1 -1c-98 0 -177 -70 -177 -180s79 -181 177 -181
c238 0 238 362 1 362z" />
    <glyph glyph-name="adieresis" unicode="&#xe4;" horiz-adv-x="636" 
d="M156 662c0 71 107 71 107 0c0 -70 -107 -70 -107 0zM386 661c0 71 107 71 107 1s-107 -70 -107 -1zM561 -1v1v493h-80l-1 -89c-35 64 -108 98 -182 98c-141 0 -254 -96 -254 -255c0 -161 111 -259 253 -258c69 0 144 32 183 100l2 -90h79zM303 427h-1
c238 0 238 -362 1 -362c-98 0 -177 71 -177 182c0 110 79 180 177 180z" />
    <glyph glyph-name="agrave" unicode="&#xe0;" horiz-adv-x="637" 
d="M191 706v2h101l75 -127v-5h-75zM483 0l-2 -2l-2 90c-39 -68 -114 -100 -182 -100c-142 0 -253 98 -253 259c0 160 113 256 254 255c74 0 147 -34 183 -98l1 90h80v-494h-79zM302 425l-1 -1c-98 0 -177 -70 -177 -180s79 -181 177 -181c238 0 238 362 1 362z" />
    <glyph glyph-name="amacron" unicode="&#x101;" horiz-adv-x="637" 
d="M153 687h334v-71h-334v71zM483 0l-2 -2l-2 90c-39 -68 -114 -100 -182 -100c-142 0 -253 98 -253 259c0 160 113 256 254 255c74 0 147 -34 183 -98l1 90h80v-494h-79zM302 425l-1 -1c-98 0 -177 -70 -177 -180s79 -181 177 -181c238 0 238 362 1 362z" />
    <glyph glyph-name="aogonek" unicode="&#x105;" horiz-adv-x="637" 
d="M562 -38l-1 -2c-63 7 -120 -22 -109 -66c4 -19 24 -35 56 -35c24 0 54 12 74 38l45 -31c-23 -43 -71 -66 -118 -67c-65 -2 -113 30 -122 79c-7 40 14 98 96 121l-4 89c-39 -68 -114 -100 -182 -100c-142 0 -253 98 -253 259c0 160 113 256 254 255c74 0 147 -34 183 -98
l1 90h80v-532zM303 425l-1 -1c-98 0 -177 -70 -177 -180s79 -181 177 -181c238 0 238 362 1 362z" />
    <glyph glyph-name="aring" unicode="&#xe5;" horiz-adv-x="637" 
d="M200 662h-1c0 68 57 103 115 103s117 -34 117 -103c0 -68 -55 -104 -117 -104c-63 0 -114 37 -114 104zM312 715h1c-76 0 -76 -105 0 -105c80 0 78 105 -1 105zM483 0l-2 -2l-2 90c-39 -68 -114 -100 -182 -100c-142 0 -253 98 -253 259c0 160 113 256 254 255
c74 0 147 -34 183 -98l1 90h80v-494h-79zM302 425l-1 -1c-98 0 -177 -70 -177 -180s79 -181 177 -181c238 0 238 362 1 362z" />
    <glyph glyph-name="aringacute" unicode="&#x1fb;" horiz-adv-x="636" 
d="M278 737l72 93h97v-2l-96 -94h-73v3zM211 621v-1c0 -57 46 -88 104 -88c55 0 104 31 104 89s-52 88 -104 88c-53 0 -104 -30 -104 -88zM314 664h-1c70 0 72 -89 1 -89c-69 0 -69 89 0 89zM561 -1v2v494h-80l-1 -90c-35 64 -108 98 -182 98c-141 0 -254 -96 -254 -256
c0 -161 111 -259 253 -258c69 0 144 32 183 100l2 -90h79zM303 428l-1 1c238 0 238 -362 1 -362c-98 0 -177 71 -177 181s79 180 177 180z" />
    <glyph glyph-name="atilde" unicode="&#xe3;" horiz-adv-x="637" 
d="M176 630v-2c15 60 64 91 120 71c11 -3 45 -23 55 -25c22 -8 46 -4 57 28l54 -23c-16 -69 -70 -90 -118 -71c-12 3 -46 25 -57 28c-22 8 -46 3 -58 -30zM483 -2l-2 -2l-2 90c-39 -68 -114 -100 -182 -100c-142 0 -253 98 -253 259c0 160 113 256 254 255
c74 0 147 -34 183 -98l1 90h80v-494h-79zM302 423l-1 -1c-98 0 -177 -70 -177 -180s79 -181 177 -181c238 0 238 362 1 362z" />
    <glyph glyph-name="ae" unicode="&#xe6;" horiz-adv-x="1013" 
d="M480 0l1 -3v90c-39 -68 -115 -100 -184 -100c-142 0 -253 98 -253 259c0 160 113 256 253 255c74 0 149 -34 185 -98l1 90h64v-85c43 64 111 96 188 95c137 -1 266 -100 238 -289h-419c9 -91 83 -148 178 -148c56 0 124 22 157 62l54 -50c-50 -59 -136 -88 -213 -88
c-83 0 -148 34 -185 94l-2 -84h-63zM896 281l-1 -1c-4 96 -70 148 -166 148c-86 0 -160 -52 -174 -147h341zM302 423v-1c-98 0 -177 -70 -177 -180s79 -181 177 -181c242 0 242 362 0 362z" />
    <glyph glyph-name="aeacute" unicode="&#x1fd;" horiz-adv-x="1014" 
d="M466 585l69 119h95v-2l-94 -122h-70v5zM483 404l-1 2c-35 64 -110 98 -184 98c-141 0 -254 -96 -254 -256c0 -161 111 -259 253 -258c69 0 145 32 184 100v-90h64l2 84c37 -59 102 -93 185 -93c77 0 163 29 212 88l-54 50c-33 -40 -101 -62 -157 -62
c-95 0 -169 57 -178 149h419c28 189 -101 288 -238 289c-77 0 -145 -32 -188 -96v85h-64zM555 286v1c14 95 88 147 174 147c97 0 163 -52 167 -148h-341zM303 430v1c242 0 242 -362 0 -362c-98 0 -177 71 -177 181s79 180 177 180z" />
    <glyph glyph-name="b" unicode="b" horiz-adv-x="637" 
d="M157 700v-296c35 67 115 99 185 99c141 0 250 -90 250 -256c0 -163 -109 -256 -251 -256c-73 0 -145 32 -184 99l-4 -90h-78v700h82zM336 426c-97 0 -175 -72 -175 -178c0 -108 77 -180 175 -180c96 0 174 65 174 179c0 116 -78 179 -174 179z" />
    <glyph glyph-name="c" unicode="c" horiz-adv-x="516" 
d="M487 66l-1 1c-53 -53 -116 -76 -184 -76c-141 0 -258 91 -258 256s115 256 258 256c67 0 127 -23 179 -74l-52 -54c-35 34 -81 50 -125 50c-98 0 -177 -67 -177 -178c0 -115 80 -178 176 -178c47 0 94 16 129 52z" />
    <glyph glyph-name="cacute" unicode="&#x107;" horiz-adv-x="517" 
d="M242 590l66 110h87v-2l-87 -113h-66v5zM432 121l-1 -4c-35 -35 -82 -51 -129 -51c-96 0 -176 63 -176 179c0 112 79 179 178 179c44 0 90 -16 125 -50l52 54c-52 51 -112 74 -179 74c-143 0 -258 -91 -258 -255c0 -165 117 -256 258 -256c69 0 132 23 185 75z" />
    <glyph glyph-name="ccaron" unicode="&#x10d;" horiz-adv-x="516" 
d="M136 694v7h78l79 -75l82 75h77v-7l-135 -123h-49zM487 66l-1 1c-53 -53 -116 -76 -184 -76c-141 0 -258 91 -258 256s115 256 258 256c67 0 127 -23 179 -74l-52 -54c-35 34 -81 50 -125 50c-98 0 -177 -67 -177 -178c0 -115 80 -178 176 -178c47 0 94 16 129 52z" />
    <glyph glyph-name="ccedilla" unicode="&#xe7;" horiz-adv-x="518" 
d="M488 66v1c-52 -52 -113 -75 -180 -76l-12 -43c87 1 109 -57 98 -106c-13 -54 -64 -79 -114 -80c-46 -1 -94 18 -118 58l39 35c18 -25 45 -35 73 -35c25 0 49 10 55 32c11 37 -32 67 -89 47l-17 13l24 84c-115 20 -202 108 -202 251c0 165 115 256 258 256
c67 0 127 -23 179 -74l-52 -54c-35 34 -81 50 -125 50c-98 0 -177 -67 -177 -178c0 -115 80 -178 176 -178c47 0 94 16 129 52z" />
    <glyph glyph-name="ccircumflex" unicode="&#x109;" horiz-adv-x="516" 
d="M270 712h50l137 -128v-6h-81l-81 75l-80 -75h-82v6zM487 66l-1 1c-53 -53 -116 -76 -184 -76c-141 0 -258 91 -258 256s115 256 258 256c67 0 127 -23 179 -74l-52 -54c-35 34 -81 50 -125 50c-98 0 -177 -67 -177 -178c0 -115 80 -178 176 -178c47 0 94 16 129 52z" />
    <glyph glyph-name="cdotaccent" unicode="&#x10b;" horiz-adv-x="517" 
d="M247 649c0 67 102 67 102 0s-102 -67 -102 0zM432 121l-1 -4c-35 -35 -82 -51 -129 -51c-96 0 -176 63 -176 179c0 112 79 179 178 179c44 0 90 -16 125 -49l52 53c-52 51 -112 74 -179 74c-143 0 -258 -91 -258 -255c0 -165 117 -256 258 -256c69 0 132 23 185 75z" />
    <glyph glyph-name="d" unicode="d" horiz-adv-x="636" 
d="M560 700l1 1v-700h-77l-4 90c-40 -68 -112 -100 -185 -100c-141 0 -250 93 -250 256c0 166 109 256 249 256c70 0 150 -32 185 -99v296h81zM300 427h1c-96 0 -174 -63 -174 -179c0 -114 78 -179 174 -179c98 0 175 72 175 180c0 106 -78 178 -176 178z" />
    <glyph glyph-name="dcaron" unicode="&#x10f;" horiz-adv-x="636" 
d="M648 700h81l-61 -173h-63zM560 700l1 1v-700h-77l-4 90c-40 -68 -112 -100 -185 -100c-141 0 -250 93 -250 256c0 166 109 256 249 256c70 0 150 -32 185 -99v296h81zM300 427h1c-96 0 -174 -63 -174 -179c0 -114 78 -179 174 -179c98 0 175 72 175 180
c0 106 -78 178 -176 178z" />
    <glyph glyph-name="dcroat" unicode="&#x111;" horiz-adv-x="636" 
d="M560 700l1 1v-68h69v-60h-69v-572h-77l-4 90c-40 -68 -112 -100 -185 -100c-141 0 -250 93 -250 256c0 166 109 256 249 256c70 0 150 -32 185 -99v168h-106v60h106v68h81zM300 427h1c-96 0 -174 -63 -174 -179c0 -114 78 -179 174 -179c98 0 175 72 175 180
c0 106 -78 178 -176 178z" />
    <glyph glyph-name="e" unicode="e" horiz-adv-x="586" 
d="M518 79h-1c-50 -59 -136 -88 -213 -88c-153 0 -260 101 -260 258c0 149 107 256 256 256c151 0 266 -93 247 -290h-420c9 -91 84 -148 179 -148c56 0 124 22 157 62zM469 284v-1c-4 96 -70 148 -167 148c-86 0 -161 -52 -175 -147h342z" />
    <glyph glyph-name="eacute" unicode="&#xe9;" horiz-adv-x="585" 
d="M248 580l74 127h101v-2l-100 -130h-75v5zM546 215v-2c19 198 -96 291 -247 291c-148 0 -255 -107 -255 -256c0 -157 107 -258 260 -258c77 0 163 29 213 88l-55 50c-33 -40 -101 -62 -157 -62c-95 0 -168 57 -177 149h418zM129 282v1c14 95 87 147 173 147
c97 0 163 -52 167 -148h-340z" />
    <glyph glyph-name="ebreve" unicode="&#x115;" horiz-adv-x="586" 
d="M439 703c4 -84 -58 -130 -137 -130c-81 0 -142 46 -139 130h67c0 -36 20 -69 71 -69c50 0 70 33 70 70zM518 78h-1c-50 -59 -136 -88 -213 -88c-153 0 -260 101 -260 259c0 149 107 256 256 256c151 0 266 -93 247 -291h-418c9 -91 82 -148 177 -148c56 0 124 22 157 62z
M469 283c-4 96 -70 148 -167 148c-86 0 -159 -52 -173 -148h340z" />
    <glyph glyph-name="ecaron" unicode="&#x11b;" horiz-adv-x="586" 
d="M133 694v7h85l84 -76l87 76h83v-7l-144 -127h-52zM518 79h-1c-50 -59 -136 -88 -213 -88c-153 0 -260 101 -260 258c0 149 107 256 256 256c151 0 266 -93 247 -290h-418c9 -91 82 -148 177 -148c56 0 124 22 157 62zM469 284v-1c-4 96 -70 148 -167 148
c-86 0 -159 -52 -173 -147h340z" />
    <glyph glyph-name="ecircumflex" unicode="&#xea;" horiz-adv-x="586" 
d="M137 572l145 134h52l145 -134v-7h-85l-86 79l-86 -79h-85v7zM518 79h-1c-50 -59 -136 -88 -213 -88c-153 0 -260 101 -260 258c0 149 107 256 256 256c151 0 266 -93 247 -290h-418c9 -91 82 -148 177 -148c56 0 124 22 157 62zM469 284v-1c-4 96 -70 148 -167 148
c-86 0 -159 -52 -173 -147h340z" />
    <glyph glyph-name="edieresis" unicode="&#xeb;" horiz-adv-x="585" 
d="M148 651c0 71 107 71 107 1s-107 -70 -107 -1zM361 651c0 71 107 71 107 0c0 -70 -107 -70 -107 0zM546 213v-2c19 198 -96 291 -247 291c-148 0 -255 -107 -255 -256c0 -157 107 -258 260 -258c77 0 163 29 213 88l-55 51c-33 -40 -101 -62 -157 -62
c-95 0 -168 57 -177 148h418zM129 281c14 95 87 147 173 147c97 0 163 -52 167 -147h-340z" />
    <glyph glyph-name="edotaccent" unicode="&#x117;" horiz-adv-x="585" 
d="M248 659c0 68 109 68 109 0s-109 -68 -109 0zM546 215v-2c19 198 -96 291 -247 291c-148 0 -255 -107 -255 -256c0 -157 107 -258 260 -258c77 0 163 29 213 88l-55 50c-33 -40 -101 -62 -157 -62c-95 0 -168 57 -177 149h418zM129 282v1c14 95 87 147 173 147
c97 0 163 -52 167 -148h-340z" />
    <glyph glyph-name="egrave" unicode="&#xe8;" horiz-adv-x="586" 
d="M188 704v2h101l74 -127v-5h-75zM518 79h-1c-50 -59 -136 -88 -213 -88c-153 0 -260 101 -260 258c0 149 107 256 256 256c151 0 266 -93 247 -290h-418c9 -91 82 -148 177 -148c56 0 124 22 157 62zM469 284v-1c-4 96 -70 148 -167 148c-86 0 -159 -52 -173 -147h340z
" />
    <glyph glyph-name="emacron" unicode="&#x113;" horiz-adv-x="586" 
d="M144 698h312v-67h-312v67zM518 79h-1c-50 -59 -136 -88 -213 -88c-153 0 -260 101 -260 258c0 149 107 256 256 256c151 0 266 -93 247 -290h-418c9 -91 82 -148 177 -148c56 0 124 22 157 62zM469 284v-1c-4 96 -70 148 -167 148c-86 0 -159 -52 -173 -147h340z" />
    <glyph glyph-name="eogonek" unicode="&#x119;" horiz-adv-x="586" 
d="M551 -82l-3 2c-23 -43 -74 -68 -122 -70c-54 -2 -98 19 -113 56c-13 28 -10 64 8 89c-6 -1 -16 -2 -22 -2c-151 4 -257 102 -257 256c0 149 107 256 256 256c151 0 266 -93 247 -290h-418c9 -91 82 -148 177 -148c56 0 124 22 157 62l55 -50c-26 -31 -67 -57 -107 -71
c-31 -13 -45 -40 -33 -67c8 -16 27 -29 54 -29c24 0 55 11 76 37zM466 286v-1c-4 96 -70 148 -167 148c-86 0 -159 -52 -173 -147h340z" />
    <glyph glyph-name="f" unicode="f" horiz-adv-x="382" 
d="M129 0l1 -1v417h-97v72h97v39c0 113 62 179 166 179c40 0 78 -13 112 -36l-34 -61c-27 16 -48 25 -76 25c-53 0 -87 -33 -87 -107v-39h155v-72h-155v-416h-82z" />
    <glyph glyph-name="g" unicode="g" horiz-adv-x="611" 
d="M130 -83c0 -96 85 -135 175 -136c85 0 174 31 174 117c0 80 -81 119 -173 119c-155 0 -261 90 -261 244c0 163 134 245 261 245c45 0 104 -12 140 -37l53 64l58 -46l-56 -66c39 -44 64 -88 64 -160c0 -84 -43 -170 -139 -201c96 -28 136 -90 136 -161
c0 -128 -127 -193 -258 -193c-149 0 -256 78 -253 211h79zM126 261c2 -113 82 -172 181 -172c105 0 178 76 178 171c0 113 -86 171 -179 171c-88 0 -180 -55 -180 -170z" />
    <glyph glyph-name="gbreve" unicode="&#x11f;" horiz-adv-x="611" 
d="M446 710h-1c4 -86 -58 -133 -136 -133c-80 0 -141 47 -138 133h67c0 -37 20 -70 71 -70c50 0 70 33 70 70h67zM501 421v-1c39 -44 64 -88 64 -160c0 -87 -46 -170 -142 -201c96 -28 139 -90 139 -161c0 -128 -127 -193 -258 -193c-149 0 -256 78 -253 211h81
c-2 -87 83 -131 173 -132c85 0 174 34 174 114s-81 119 -173 119c-155 0 -261 90 -261 244c0 163 134 245 261 245c45 0 104 -12 140 -37l53 64l58 -46zM126 261l2 -1c0 -112 80 -169 179 -169c105 0 178 74 178 169c0 113 -86 169 -179 169c-88 0 -180 -53 -180 -168z" />
    <glyph glyph-name="gcircumflex" unicode="&#x11d;" horiz-adv-x="611" 
d="M281 713h52l141 -128v-6h-84l-84 75l-82 -75h-85v6zM501 421v-1c39 -44 64 -88 64 -160c0 -87 -46 -170 -142 -201c96 -28 139 -90 139 -161c0 -128 -127 -193 -258 -193c-149 0 -256 78 -253 211h81c-2 -87 83 -131 173 -132c85 0 174 34 174 114s-81 119 -173 119
c-155 0 -261 90 -261 244c0 163 134 245 261 245c45 0 104 -12 140 -37l53 64l58 -46zM483 261l2 -1c0 113 -86 169 -179 169c-88 0 -180 -53 -180 -168c0 -112 80 -169 179 -169c105 0 178 74 178 169z" />
    <glyph glyph-name="gcommaaccent" unicode="&#x123;" horiz-adv-x="611" 
d="M334 674l-1 -1c22 -4 38 -20 38 -44c0 -70 -107 -68 -107 2c0 11 29 88 44 117h55zM557 486v-1l-56 -66c39 -44 64 -88 64 -160c0 -87 -46 -170 -142 -201c96 -28 139 -90 139 -161c0 -128 -127 -193 -258 -193c-149 0 -256 78 -253 211h81c-2 -87 83 -131 173 -132
c85 0 174 34 174 114s-81 119 -173 119c-155 0 -261 90 -261 244c0 163 134 245 261 245c45 0 104 -12 140 -37l53 64zM126 260l2 -1c0 -112 80 -169 179 -169c105 0 178 74 178 169c0 113 -86 169 -179 169c-88 0 -180 -53 -180 -168z" />
    <glyph glyph-name="gdotaccent" unicode="&#x121;" horiz-adv-x="612" 
d="M261 658c0 68 112 68 112 0c0 -69 -112 -69 -112 0zM449 470l-2 2c-36 25 -95 37 -140 37c-128 0 -262 -82 -262 -245c0 -154 106 -244 261 -244c92 0 173 -39 173 -119s-89 -118 -174 -118c-89 0 -176 48 -174 134h-79c-2 -132 105 -210 255 -210c131 0 258 65 258 193
c0 71 -43 133 -139 161c96 31 139 115 139 202c0 72 -22 115 -61 159l56 65l-58 46zM306 433c92 0 178 -56 178 -169c0 -94 -73 -168 -178 -168c-100 0 -180 57 -180 168c0 116 92 169 180 169z" />
    <glyph glyph-name="h" unicode="h" horiz-adv-x="602" 
d="M156 700v-1v-287c42 65 108 87 171 88c139 0 207 -92 207 -228v-272h-81v271c0 97 -50 152 -140 152s-156 -71 -156 -161v-262h-82v700h81z" />
    <glyph glyph-name="hbar" unicode="&#x127;" horiz-adv-x="596" 
d="M12 628v-1h63v72h81v-72h119v-60h-119v-155c42 65 104 87 167 88c139 0 205 -92 205 -228v-273h-81v272c0 97 -48 152 -138 152s-152 -71 -152 -161v-262h-82v568h-63v60z" />
    <glyph glyph-name="hcircumflex" unicode="&#x125;" horiz-adv-x="596" 
d="M276 902h50l140 -130v-6h-83l-83 76l-82 -76h-82v6zM75 700v-1h81v-287c42 65 104 87 167 88c139 0 205 -92 205 -228v-273h-81v272c0 97 -48 152 -138 152s-152 -71 -152 -161v-262h-82v700z" />
    <glyph glyph-name="i" unicode="i" horiz-adv-x="232" 
d="M63 645c0 71 108 71 108 -1c0 -71 -108 -71 -108 1zM75 496v-496h82v496h-82z" />
    <glyph glyph-name="dotlessi" unicode="&#x131;" horiz-adv-x="235" 
d="M160 487v-487h-85v487h85z" />
    <glyph glyph-name="iacute" unicode="&#xed;" horiz-adv-x="235" 
d="M74 571l50 129h89v-3l-69 -131h-70v5zM160 0v487h-85v-487h85z" />
    <glyph glyph-name="ibreve" unicode="&#x12d;" horiz-adv-x="235" 
d="M238 700h1c3 -81 -52 -126 -122 -126c-71 0 -125 45 -122 126h59c0 -35 17 -67 63 -67c44 0 62 31 62 67h59zM75 487h85v-487h-85v487z" />
    <glyph glyph-name="icircumflex" unicode="&#xee;" horiz-adv-x="235" 
d="M-12 571l113 131h43l110 -131v-7h-72l-60 74l-61 -74h-73v7zM75 487h85v-487h-85v487z" />
    <glyph glyph-name="idieresis" unicode="&#xef;" horiz-adv-x="235" 
d="M-10 650c0 68 104 68 104 0s-104 -68 -104 0zM149 650c0 68 104 68 104 0s-104 -68 -104 0zM160 1v487h-85v-487h85z" />
    <glyph glyph-name="igrave" unicode="&#xec;" horiz-adv-x="234" 
d="M21 697v3h90l50 -129v-5h-70zM75 487h84v-487h-84v487z" />
    <glyph glyph-name="ij" unicode="&#x133;" horiz-adv-x="464" 
d="M63 645c0 71 108 71 108 -1c0 -71 -108 -71 -108 1zM75 496v-496h82v496h-82zM295 648c0 71 108 71 108 -1c0 -71 -108 -71 -108 1zM308 495h-1v-560c0 -61 -8 -103 -68 -104c-22 0 -45 6 -67 17l-27 -66c32 -19 63 -28 98 -28c110 0 147 69 146 181v560h-81z" />
    <glyph glyph-name="imacron" unicode="&#x12b;" horiz-adv-x="235" 
d="M1 696h233v-69h-233v69zM75 487h85v-487h-85v487z" />
    <glyph glyph-name="iogonek" unicode="&#x12f;" horiz-adv-x="236" 
d="M67 645c0 71 108 71 108 -1c0 -71 -108 -71 -108 1zM79 496v2v-472c-71 -26 -78 -101 -43 -141c36 -69 161 -67 204 8l-45 30c-34 -36 -83 -35 -107 -8c-26 36 5 86 73 85v496h-82z" />
    <glyph glyph-name="itilde" unicode="&#x129;" horiz-adv-x="235" 
d="M1 641l1 -1c12 55 53 83 99 65c10 -3 39 -22 47 -24c18 -7 38 -3 46 26l45 -22c-14 -64 -59 -84 -99 -66c-10 3 -38 23 -46 26c-19 7 -39 3 -49 -27zM76 486h85v-487h-85v487z" />
    <glyph glyph-name="j" unicode="j" horiz-adv-x="232" 
d="M63 648c0 71 108 71 108 -1c0 -71 -108 -71 -108 1zM76 495h-1v-560c0 -61 -8 -103 -68 -104c-22 0 -45 6 -67 17l-27 -66c32 -19 63 -28 98 -28c110 0 147 69 146 181v560h-81z" />
    <glyph glyph-name="dotlessj" unicode="&#x237;" horiz-adv-x="232" 
d="M156 495l1 1v-560c1 -113 -36 -182 -146 -182c-35 0 -66 9 -98 28l27 66c22 -12 45 -18 67 -17c60 1 68 43 68 104v560h81z" />
    <glyph glyph-name="jcircumflex" unicode="&#x135;" horiz-adv-x="231" 
d="M-25 573l120 134h44l120 -134v-6h-72l-70 77l-69 -77h-73v6zM156 -65l1 1c1 -113 -36 -182 -146 -182c-35 0 -66 9 -98 28l27 66c22 -12 45 -18 67 -17c60 1 68 43 68 104v560h81v-560z" />
    <glyph glyph-name="k" unicode="k" horiz-adv-x="496" 
d="M156 700v-414l203 208h102v-5l-228 -228l256 -255v-6h-100l-233 233v-233h-81v700h81z" />
    <glyph glyph-name="kcommaaccent" unicode="&#x137;" horiz-adv-x="496" 
d="M156 700v-414l203 208h102v-5l-228 -228l256 -255v-6h-100l-233 233v-233h-81v700h81zM254 -157h1c-21 4 -36 20 -36 43c0 66 102 64 102 -1c0 -11 -27 -84 -42 -112h-52z" />
    <glyph glyph-name="kgreenlandic" unicode="&#x138;" horiz-adv-x="496" 
d="M156 494v-208l203 208h102v-5l-228 -228l256 -255v-6h-100l-233 233v-233h-81v494h81z" />
    <glyph glyph-name="l" unicode="l" horiz-adv-x="244" 
d="M163 700v-700h-82v700h82z" />
    <glyph glyph-name="lacute" unicode="&#x13a;" horiz-adv-x="244" 
d="M81 775l69 117h94v-3l-92 -119h-71v5zM81 700v-700h82v700h-82z" />
    <glyph glyph-name="lcaron" unicode="&#x13e;" horiz-adv-x="238" 
d="M250 701h81l-62 -177h-62zM163 700v-700h-82v700h82z" />
    <glyph glyph-name="lcommaaccent" unicode="&#x13c;" horiz-adv-x="244" 
d="M163 700v-700h-82v700h82zM106 -163v-1c-21 4 -36 20 -36 44c0 68 105 66 105 -2c0 -11 -28 -84 -44 -113h-53z" />
    <glyph glyph-name="ldot" unicode="&#x140;" horiz-adv-x="348" 
d="M163 700v-700h-82v700h82zM239 302c0 74 112 74 112 0s-112 -74 -112 0z" />
    <glyph glyph-name="lslash" unicode="&#x142;" horiz-adv-x="274" 
d="M176 700v-315l76 34v-69l-76 -33v-317h-82v280l-68 -29v67l68 30v352h82z" />
    <glyph glyph-name="m" unicode="m" horiz-adv-x="920" 
d="M75 494l1 -1h76l5 -72c30 58 90 81 146 81c68 0 138 -29 166 -108c36 76 104 108 174 108c130 0 208 -85 208 -220v-282h-82v282c0 81 -47 143 -128 143s-135 -64 -135 -145v-280h-82v280c0 81 -51 145 -133 145c-81 0 -134 -64 -134 -145v-280h-82v494z" />
    <glyph glyph-name="n" unicode="n" horiz-adv-x="608" 
d="M75 494v1h75l4 -79c43 59 103 86 169 86c125 0 217 -84 217 -229v-273h-82v272c0 95 -56 154 -150 154c-90 -1 -152 -72 -152 -161v-265h-81v494z" />
    <glyph glyph-name="nacute" unicode="&#x144;" horiz-adv-x="602" 
d="M252 580l70 120h95v-3l-95 -121h-70v4zM156 0h-1v265c0 90 62 161 152 162c94 1 150 -58 150 -154v-272h82v273c0 145 -92 229 -216 229c-66 -1 -126 -28 -169 -88l-4 79h-75v-494h81z" />
    <glyph glyph-name="napostrophe" unicode="&#x149;" horiz-adv-x="608" 
d="M150 494v1l4 -79c43 59 103 86 169 86c125 0 217 -84 217 -229v-273h-82v272c0 95 -56 154 -150 154c-90 -1 -152 -72 -152 -161v-265h-81v494h75z" />
    <glyph glyph-name="ncaron" unicode="&#x148;" horiz-adv-x="608" 
d="M144 701v6h81l82 -76l84 76h81v-6l-140 -129h-51zM75 494v1h75l4 -79c43 59 103 86 169 86c125 0 217 -84 217 -229v-273h-82v272c0 95 -56 154 -150 154c-90 -1 -152 -72 -152 -161v-265h-81v494z" />
    <glyph glyph-name="ncommaaccent" unicode="&#x146;" horiz-adv-x="606" 
d="M456 0v1v272c0 95 -56 154 -150 154c-90 -1 -152 -72 -152 -161v-265h-81v494h75l4 -79c43 59 103 86 169 86c125 0 217 -84 217 -229v-273h-82zM293 -155h1c-20 4 -35 19 -35 41c0 66 101 64 101 0c0 -11 -27 -83 -42 -110h-52z" />
    <glyph glyph-name="eng" unicode="&#x14b;" horiz-adv-x="606" 
d="M538 -24l1 2c1 -113 -36 -182 -146 -182c-35 0 -61 9 -93 28l27 66c22 -12 40 -18 62 -17c60 1 67 43 67 104v296c0 95 -56 154 -150 154c-90 -1 -152 -72 -152 -161v-265h-81v494h75l4 -79c43 59 103 86 169 86c125 0 217 -84 217 -229v-297z" />
    <glyph glyph-name="ntilde" unicode="&#xf1;" horiz-adv-x="608" 
d="M164 632l-1 1c15 57 64 87 120 68c12 -3 46 -23 57 -25c21 -7 44 -3 55 26l54 -23c-16 -66 -70 -87 -118 -69c-13 4 -47 26 -58 27c-21 7 -45 2 -56 -29zM75 495v1h75l4 -79c43 59 103 86 169 86c125 0 217 -84 217 -229v-273h-82v272c0 95 -56 154 -150 154
c-90 -1 -152 -72 -152 -161v-265h-81v494z" />
    <glyph glyph-name="o" unicode="o" horiz-adv-x="599" 
d="M43 246c0 153 109 259 256 259c151 0 257 -106 257 -259c0 -150 -108 -255 -257 -255c-148 0 -256 105 -256 255zM475 246c0 110 -76 184 -175 184c-101 0 -175 -74 -175 -184c0 -104 73 -178 174 -178c102 0 175 74 176 178z" />
    <glyph glyph-name="oacute" unicode="&#xf3;" horiz-adv-x="594" 
d="M251 572v5l73 123h100v-3l-99 -125h-74zM550 246h1c0 150 -107 257 -254 257s-253 -107 -253 -257s105 -255 253 -255s253 105 253 255zM126 246h1c0 104 71 182 172 182c98 0 171 -78 171 -182s-70 -178 -172 -178s-172 74 -172 178z" />
    <glyph glyph-name="obreve" unicode="&#x14f;" horiz-adv-x="595" 
d="M434 702v-1c4 -85 -58 -131 -137 -130c-80 0 -140 46 -136 131h66c0 -36 20 -69 71 -69c49 0 69 32 69 69h67zM44 245c0 150 106 257 253 257s254 -107 254 -257s-105 -255 -254 -255c-148 0 -253 105 -253 255zM469 245h1c0 104 -73 182 -172 182
c-101 0 -172 -78 -172 -182s70 -178 171 -178c102 0 172 74 172 178z" />
    <glyph glyph-name="ocircumflex" unicode="&#xf4;" horiz-adv-x="594" 
d="M274 707h52l145 -134v-7h-85l-86 79l-86 -79h-85v7zM550 246h1c0 150 -107 257 -254 257s-253 -107 -253 -257s105 -255 253 -255s253 105 253 255zM126 246h1c0 104 71 182 172 182c98 0 171 -78 171 -182s-70 -178 -172 -178s-172 74 -172 178z" />
    <glyph glyph-name="odieresis" unicode="&#xf6;" horiz-adv-x="594" 
d="M141 645c0 71 107 71 107 0c0 -70 -107 -70 -107 0zM351 644c0 71 107 71 107 1s-107 -70 -107 -1zM550 245h1c0 150 -107 257 -254 257s-253 -107 -253 -257s105 -255 253 -255s253 105 253 255zM126 245h1c0 104 71 182 172 182c98 0 171 -78 171 -182
s-70 -178 -172 -178s-172 74 -172 178z" />
    <glyph glyph-name="ograve" unicode="&#xf2;" horiz-adv-x="595" 
d="M278 576l-100 127v3h101l74 -125v-5h-75zM44 246c0 150 106 257 253 257s254 -107 254 -257s-105 -255 -254 -255c-148 0 -253 105 -253 255zM469 246h1c0 104 -73 182 -172 182c-101 0 -172 -78 -172 -182s70 -178 171 -178c102 0 172 74 172 178z" />
    <glyph glyph-name="ohungarumlaut" unicode="&#x151;" horiz-adv-x="594" 
d="M248 695h88v-2l-94 -106h-69zM393 694h88v-1l-96 -106h-67zM550 246h1c0 150 -107 257 -254 257s-253 -107 -253 -257s105 -255 253 -255s253 105 253 255zM126 246h1c0 104 71 182 172 182c98 0 171 -78 171 -182s-70 -178 -172 -178s-172 74 -172 178z" />
    <glyph glyph-name="omacron" unicode="&#x14d;" horiz-adv-x="595" 
d="M143 689h307v-69h-307v69zM44 246c0 150 106 257 253 257s254 -107 254 -257s-105 -255 -254 -255c-148 0 -253 105 -253 255zM469 246h1c0 104 -73 182 -172 182c-101 0 -172 -78 -172 -182s70 -178 171 -178c102 0 172 74 172 178z" />
    <glyph glyph-name="oslash" unicode="&#xf8;" horiz-adv-x="594" 
d="M139 42c-59 44 -95 116 -95 204c0 150 106 257 253 257c37 0 71 -7 102 -21l37 63h80l-57 -97c57 -45 92 -117 92 -202c0 -150 -105 -255 -254 -255c-35 0 -69 6 -99 18l-40 -68h-79zM360 415l2 1c-19 8 -41 13 -64 13c-101 0 -172 -78 -172 -182c0 -57 21 -103 55 -133z
M242 79c17 -7 37 -10 57 -10c102 0 172 74 172 178c0 53 -20 98 -52 130z" />
    <glyph glyph-name="oslashacute" unicode="&#x1ff;" horiz-adv-x="594" 
d="M259 585l67 115h91v-2l-90 -117h-68v4zM158 -59l1 -1l40 68c30 -11 64 -17 99 -17c148 0 253 105 253 255c0 85 -35 157 -91 203l57 97h-80l-37 -63c-31 13 -65 20 -103 20c-147 0 -253 -107 -253 -257c0 -88 36 -160 95 -204l-60 -101h79zM182 113v-1
c-35 30 -56 76 -56 133c0 104 71 182 172 182c22 0 44 -5 63 -13zM418 374h1c32 -32 52 -77 52 -130c0 -104 -70 -178 -172 -178c-21 0 -41 3 -58 10z" />
    <glyph glyph-name="otilde" unicode="&#xf5;" horiz-adv-x="594" 
d="M159 627l-1 1c15 58 64 88 120 69c13 -3 48 -24 59 -25c21 -7 44 -2 54 28l55 -23c-16 -68 -70 -89 -117 -70c-12 3 -45 23 -56 26c-23 8 -48 4 -61 -30zM44 247c0 150 106 257 253 257s254 -107 254 -257s-105 -255 -254 -255c-148 0 -253 105 -253 255zM469 247h1
c0 104 -73 182 -172 182c-101 0 -172 -78 -172 -182s70 -178 171 -178c102 0 172 74 172 178z" />
    <glyph glyph-name="oe" unicode="&#x153;" horiz-adv-x="996" 
d="M928 79h-1c-50 -59 -133 -88 -211 -88c-97 0 -176 48 -212 126c-40 -80 -112 -125 -207 -125c-148 0 -253 105 -253 255s106 258 253 258c94 0 172 -47 209 -127c33 74 111 127 206 127c151 0 263 -92 244 -289c-81 0 -331 0 -412 -1c9 -91 79 -148 174 -148
c56 0 122 22 155 62zM879 284v-1c-4 96 -68 148 -165 148c-86 0 -157 -52 -171 -147h336zM126 245h1c0 -104 70 -178 171 -178c102 0 171 74 171 178s-72 182 -171 182c-101 0 -172 -78 -172 -182z" />
    <glyph glyph-name="p" unicode="p" horiz-adv-x="637" 
d="M75 -233v725h78l4 -95c39 66 112 104 190 104c142 -3 246 -103 246 -255c0 -156 -103 -257 -251 -257c-70 0 -148 30 -187 100v-322h-80zM337 66c99 0 174 67 174 178s-73 177 -174 177c-103 0 -173 -76 -173 -177s73 -177 173 -178z" />
    <glyph glyph-name="thorn" unicode="&#xfe;" horiz-adv-x="637" 
d="M76 -206l-1 -1v905h81v-300c36 65 112 104 190 104c139 -3 246 -92 246 -256c0 -168 -109 -257 -250 -257c-70 0 -145 32 -185 104v-299h-81zM336 68c96 0 174 61 174 178c0 116 -78 176 -174 176c-98 0 -173 -76 -173 -177s76 -177 173 -177z" />
    <glyph glyph-name="q" unicode="q" horiz-adv-x="636" 
d="M480 -233h2v322c-39 -69 -117 -99 -187 -99c-148 0 -251 101 -251 258c0 153 104 253 246 255c78 0 151 -38 190 -104l3 95h78v-727h-81zM302 69l1 1c99 0 172 76 172 177s-70 177 -173 177c-101 0 -174 -66 -174 -177s75 -178 174 -178z" />
    <glyph glyph-name="r" unicode="r" horiz-adv-x="428" 
d="M151 494l1 1l6 -74c34 64 95 82 152 82c43 1 85 -14 115 -37l-37 -70c-26 18 -52 27 -86 27c-79 -1 -145 -57 -145 -148v-275h-82v494h76z" />
    <glyph glyph-name="racute" unicode="&#x155;" horiz-adv-x="427" 
d="M195 584l68 116h93v-3l-92 -117h-69v4zM75 494v1v-494h82v275c0 90 66 146 145 146c34 0 60 -9 86 -27l37 70c-30 23 -72 38 -116 37c-57 0 -118 -18 -152 -82l-6 74h-76z" />
    <glyph glyph-name="rcaron" unicode="&#x159;" horiz-adv-x="428" 
d="M272 569h-49l-132 127v6h79l78 -75l81 75h77v-6zM75 494l1 1h76l6 -74c34 64 95 82 152 82c43 1 85 -14 115 -37l-37 -70c-26 18 -52 27 -86 27c-79 -1 -145 -57 -145 -148v-275h-82v494z" />
    <glyph glyph-name="rcommaaccent" unicode="&#x157;" horiz-adv-x="428" 
d="M151 494l1 1l6 -74c34 64 95 82 152 82c43 1 85 -14 115 -37l-37 -70c-26 18 -52 27 -86 27c-79 -1 -145 -57 -145 -148v-275h-82v494h76zM103 -159c-20 4 -35 19 -35 42c0 66 101 64 101 -1c0 -11 -27 -83 -42 -110h-51z" />
    <glyph glyph-name="s" unicode="s" horiz-adv-x="499" 
d="M393 385l-1 -1c-43 39 -88 48 -139 48c-68 1 -123 -23 -122 -72c1 -51 61 -66 123 -73c90 -11 210 -29 208 -151c-2 -99 -96 -148 -207 -148c-83 0 -165 23 -221 93l47 57c44 -54 115 -76 176 -76c54 0 123 17 125 77c1 54 -57 70 -133 79c-95 12 -197 37 -197 142
c-1 105 105 146 200 145c74 0 135 -18 188 -66z" />
    <glyph glyph-name="sacute" unicode="&#x15b;" horiz-adv-x="499" 
d="M201 584l68 117h93v-2l-92 -119h-69v4zM440 439l-1 -2c-53 48 -114 66 -188 66c-95 1 -201 -40 -200 -145s103 -130 198 -142c76 -9 134 -25 133 -79c-2 -59 -71 -76 -125 -75c-61 0 -132 22 -176 77l-47 -57c56 -70 138 -94 221 -94c111 0 205 50 207 149
c3 122 -117 140 -208 151c-62 8 -122 23 -123 73c-1 49 54 73 122 72c51 0 96 -9 140 -48z" />
    <glyph glyph-name="scaron" unicode="&#x161;" horiz-adv-x="499" 
d="M279 570h-49l-134 126v6h80l80 -75l81 75h79v-6zM35 82l-1 -2c56 -70 138 -94 221 -94c111 0 205 50 207 149c3 122 -117 140 -208 151c-62 8 -122 23 -123 73c-1 49 54 73 122 72c51 0 96 -9 140 -48l47 54c-53 48 -114 66 -188 66c-95 1 -201 -40 -200 -145
s103 -130 198 -142c76 -9 134 -25 133 -79c-2 -59 -71 -76 -125 -75c-61 0 -132 22 -176 77z" />
    <glyph glyph-name="scedilla" unicode="&#x15f;" horiz-adv-x="500" 
d="M275 -51l1 -1c88 3 106 -51 96 -94c-13 -50 -64 -73 -114 -72c-43 1 -87 18 -109 53l38 31c17 -23 43 -32 70 -31c24 0 47 9 53 29c11 33 -30 59 -85 40l-16 12l23 72c-75 4 -149 31 -198 94l47 57c45 -56 114 -77 176 -77c54 0 123 17 125 77c1 54 -57 70 -133 79
c-95 12 -197 37 -197 142c-1 105 105 146 200 145c74 0 135 -18 188 -66l-47 -54c-43 39 -88 48 -139 48c-68 1 -123 -23 -122 -72c1 -51 61 -66 123 -73c90 -11 210 -29 208 -151c-2 -90 -79 -139 -177 -148z" />
    <glyph glyph-name="scircumflex" unicode="&#x15d;" horiz-adv-x="499" 
d="M231 703h50l137 -128v-6h-81l-81 74l-80 -74h-83v6zM393 385l-1 -1c-43 39 -88 48 -139 48c-68 1 -123 -23 -122 -72c1 -51 61 -66 123 -73c90 -11 210 -29 208 -151c-2 -99 -96 -149 -207 -149c-83 0 -165 24 -221 94l47 57c44 -54 115 -76 176 -76c54 0 123 17 125 77
c1 54 -57 70 -133 79c-95 12 -197 37 -197 142c-1 105 105 146 200 145c74 0 135 -18 188 -66z" />
    <glyph glyph-name="scommaaccent" unicode="&#x219;" horiz-adv-x="499" 
d="M393 385l-1 -1c-43 39 -88 48 -139 48c-68 1 -123 -23 -122 -72c1 -51 61 -66 123 -73c90 -11 210 -29 208 -151c-2 -99 -96 -149 -207 -149c-83 0 -165 24 -221 94l47 57c44 -54 115 -76 176 -76c54 0 123 17 125 77c1 54 -57 70 -133 79c-95 12 -197 37 -197 142
c-1 105 105 146 200 145c74 0 135 -18 188 -66zM246 -176v-1c-19 5 -32 19 -32 42c0 66 100 64 100 -1c0 -8 -23 -69 -41 -125h-51z" />
    <glyph glyph-name="germandbls" unicode="&#xdf;" horiz-adv-x="611" 
d="M75 516v1c0 132 108 195 221 195c119 0 224 -57 224 -187c0 -64 -41 -120 -109 -136c113 -25 157 -106 157 -190c0 -195 -180 -243 -342 -190v75c144 -55 258 0 258 111c0 116 -96 152 -188 152h-68v76h64c60 0 143 19 144 100c1 90 -75 112 -138 112
c-93 0 -135 -48 -138 -119l1 -516h-86v516z" />
    <glyph glyph-name="longs" unicode="&#x17f;" horiz-adv-x="306" 
d="M129 0l1 -1v417h-97v72h97v39c0 113 62 179 166 179c40 0 78 -13 112 -36l-34 -61c-27 16 -48 25 -76 25c-53 0 -87 -33 -87 -107v-527h-82z" />
    <glyph glyph-name="t" unicode="t" horiz-adv-x="397" 
d="M214 638v-145h153v-70h-154v-261c0 -58 19 -95 78 -95c22 0 47 7 69 18l24 -68c-33 -15 -63 -23 -96 -24c-106 -2 -156 60 -156 169v261h-99v70h99v136z" />
    <glyph glyph-name="tbar" unicode="&#x167;" horiz-adv-x="397" 
d="M56 306h76v117h-99v70h99v136l82 9v-145h153v-70h-154v-117h115v-60h-115v-84c0 -58 19 -94 78 -94c22 0 47 7 69 18l24 -69c-33 -15 -63 -23 -96 -24c-106 -2 -156 60 -156 169v84h-76v60z" />
    <glyph glyph-name="tcaron" unicode="&#x165;" horiz-adv-x="434" 
d="M202 638h-1v-145h110v-70h-110v-261c0 -58 19 -94 79 -94c22 0 47 7 69 18l25 -69c-33 -15 -63 -23 -97 -24c-106 -2 -156 60 -156 169v261h-88v70h88v136zM397 636h78l-59 -166h-61z" />
    <glyph glyph-name="u" unicode="u" horiz-adv-x="609" 
d="M458 0h1l-4 79c-44 -60 -103 -86 -172 -87c-126 0 -215 85 -215 229v273h82v-272c0 -95 56 -154 150 -154c90 1 152 72 152 161v265h82v-494h-76z" />
    <glyph glyph-name="uacute" unicode="&#xfa;" horiz-adv-x="608" 
d="M256 573l74 128h101v-3l-100 -130h-75v5zM533 494l1 2h-82v-265c0 -90 -62 -161 -152 -162c-94 -1 -150 58 -150 153v272h-82v-273c0 -144 89 -229 214 -229c69 1 128 27 171 87l4 -79h76v494z" />
    <glyph glyph-name="ubreve" unicode="&#x16d;" horiz-adv-x="609" 
d="M444 697l-1 -1c4 -83 -58 -128 -135 -128c-79 0 -139 46 -135 129h66c0 -36 20 -68 70 -68c49 0 69 32 69 68h66zM458 -1h1l-4 79c-44 -60 -103 -86 -172 -87c-126 0 -215 85 -215 229v273h82v-272c0 -95 56 -154 150 -154c90 1 152 72 152 161v265h82v-494h-76z" />
    <glyph glyph-name="ucircumflex" unicode="&#xfb;" horiz-adv-x="609" 
d="M139 570l142 132h52l142 -132v-6h-84l-84 77l-84 -77h-84v6zM458 0h1l-4 79c-44 -60 -103 -86 -172 -87c-126 0 -215 85 -215 229v273h82v-272c0 -95 56 -154 150 -154c90 1 152 72 152 161v265h82v-494h-76z" />
    <glyph glyph-name="udieresis" unicode="&#xfc;" horiz-adv-x="608" 
d="M139 653c0 71 107 71 107 1s-107 -70 -107 -1zM368 653c0 71 107 71 107 0c0 -70 -107 -70 -107 0zM533 493l1 1h-82v-265c0 -90 -62 -161 -152 -162c-94 -1 -150 58 -150 154v272h-82v-273c0 -144 89 -229 214 -229c69 1 128 27 171 87l4 -80h76v495z" />
    <glyph glyph-name="ugrave" unicode="&#xf9;" horiz-adv-x="609" 
d="M184 698v3h100l75 -128v-5h-75zM458 0h1l-4 79c-44 -60 -103 -86 -172 -87c-126 0 -215 85 -215 229v273h82v-272c0 -95 56 -154 150 -154c90 1 152 72 152 161v265h82v-494h-76z" />
    <glyph glyph-name="uhungarumlaut" unicode="&#x171;" horiz-adv-x="608" 
d="M250 701h86v-2l-92 -112h-66zM391 701h86v-2l-93 -113h-66zM533 494l1 2h-82v-265c0 -90 -62 -161 -152 -162c-94 -1 -150 58 -150 153v272h-82v-273c0 -144 89 -229 214 -229c69 1 128 27 171 87l4 -79h76v494z" />
    <glyph glyph-name="umacron" unicode="&#x16b;" horiz-adv-x="609" 
d="M151 700h305v-66h-305v66zM458 0h1l-4 79c-44 -60 -103 -86 -172 -87c-126 0 -215 85 -215 229v273h82v-272c0 -95 56 -154 150 -154c90 1 152 72 152 161v265h82v-494h-76z" />
    <glyph glyph-name="uni021B" unicode="&#x21b;" horiz-adv-x="398" 
d="M214 638v-145h153v-70h-154v-261c0 -58 19 -94 78 -94c22 0 47 7 69 18l24 -69c-33 -15 -63 -23 -96 -24c-106 -2 -156 60 -156 169v261h-99v70h99v136zM235 -175v-2c-19 5 -32 19 -32 42c0 66 100 64 100 0c0 -8 -23 -69 -41 -125h-52z" />
    <glyph glyph-name="uogonek" unicode="&#x173;" horiz-adv-x="609" 
d="M534 -49l1 -1c-69 6 -119 -27 -105 -68c6 -18 28 -33 59 -32c24 1 53 13 73 39l45 -32c-23 -42 -70 -64 -116 -66c-61 -2 -109 27 -123 71c-14 43 8 112 92 126l-4 91c-44 -60 -104 -86 -173 -87c-126 0 -215 85 -215 229v273h82v-272c0 -95 56 -154 150 -154
c90 1 152 72 152 161v265h82v-543z" />
    <glyph glyph-name="uring" unicode="&#x16f;" horiz-adv-x="609" 
d="M194 640h-1c0 64 55 97 111 97c55 0 112 -33 112 -97c0 -63 -53 -96 -112 -96c-60 0 -110 34 -110 96zM302 690h1c-73 0 -73 -97 0 -97c76 0 74 97 -1 97zM458 0h1l-4 79c-44 -60 -103 -86 -172 -87c-126 0 -215 85 -215 229v273h82v-272c0 -95 56 -154 150 -154
c90 1 152 72 152 161v265h82v-494h-76z" />
    <glyph glyph-name="utilde" unicode="&#x169;" horiz-adv-x="608" 
d="M167 636l-1 1c15 57 64 87 120 67c12 -3 46 -23 56 -25c21 -7 44 -3 54 26l55 -23c-16 -66 -70 -86 -117 -68c-12 4 -46 25 -56 27c-22 7 -46 2 -58 -29zM458 1h1l-4 79c-44 -60 -103 -86 -172 -87c-126 0 -215 85 -215 229v273h82v-272c0 -95 56 -154 150 -154
c90 1 152 72 152 161v265h82v-494h-76z" />
    <glyph glyph-name="v" unicode="v" horiz-adv-x="561" 
d="M27 494h90l80 -193l84 -214l83 213l80 194h90l-208 -495h-90z" />
    <glyph glyph-name="w" unicode="w" horiz-adv-x="839" 
d="M31 494h91l133 -407l131 407h67l131 -407l133 407h90l-173 -495h-94l-67 184l-53 180l-54 -180l-67 -184h-93z" />
    <glyph glyph-name="wacute" unicode="&#x1e83;" horiz-adv-x="839" 
d="M375 585l67 115h92v-3l-90 -116h-69v4zM299 -1l67 184l54 180l53 -180l67 -184h94l173 495h-90l-133 -407l-131 407h-67l-131 -407l-133 407h-91l175 -495h93z" />
    <glyph glyph-name="wcircumflex" unicode="&#x175;" horiz-adv-x="839" 
d="M251 579l143 128h52l142 -128v-6h-84l-84 76l-84 -76h-85v6zM31 494h91l133 -407l131 407h67l131 -407l133 407h90l-173 -495h-94l-67 184l-53 180l-54 -180l-67 -184h-93z" />
    <glyph glyph-name="wdieresis" unicode="&#x1e85;" horiz-adv-x="839" 
d="M264 656c0 67 100 67 100 0c0 -65 -100 -65 -100 0zM479 655c0 67 99 67 99 1c0 -65 -99 -65 -99 -1zM299 -2l67 184l54 180l53 -180l67 -184h94l173 495h-90l-133 -407l-131 407h-67l-131 -407l-133 407h-91l175 -495h93z" />
    <glyph glyph-name="wgrave" unicode="&#x1e81;" horiz-adv-x="839" 
d="M303 697v3h93l68 -116v-5h-69zM31 494h91l133 -407l131 407h67l131 -407l133 407h90l-173 -495h-94l-67 184l-53 180l-54 -180l-67 -184h-93z" />
    <glyph glyph-name="x" unicode="x" horiz-adv-x="495" 
d="M16 2l178 251l-166 238v3h91l128 -187l126 187h94v-3l-168 -238l181 -251v-2h-94l-139 200l-140 -200h-91v2z" />
    <glyph glyph-name="y" unicode="y" horiz-adv-x="551" 
d="M526 494l-312 -727h-88l103 240l-199 487h93l97 -257l54 -141l53 140l109 258h90z" />
    <glyph glyph-name="yacute" unicode="&#xfd;" horiz-adv-x="551" 
d="M224 578l72 123h99v-3l-98 -125h-73v5zM436 494l-109 -258l-54 -140l-53 141l-97 257h-93l198 -487l-103 -240h89l312 727h-90z" />
    <glyph glyph-name="ycircumflex" unicode="&#x177;" horiz-adv-x="551" 
d="M109 578l141 129h51l141 -129v-6h-85l-82 75l-82 -75h-84v6zM228 7l-198 487h93l97 -257l53 -141l54 140l109 258h90l-312 -727h-89z" />
    <glyph glyph-name="ydieresis" unicode="&#xff;" horiz-adv-x="551" 
d="M121 653c0 69 104 69 104 0c0 -68 -104 -68 -104 0zM346 653c0 69 104 69 104 0c0 -68 -104 -68 -104 0zM436 494l-109 -258l-54 -140l-53 141l-97 257h-93l198 -487l-103 -240h89l312 727h-90z" />
    <glyph glyph-name="ygrave" unicode="&#x1ef3;" horiz-adv-x="551" 
d="M162 698v2h96l69 -112v-5h-71zM526 494l-312 -727h-89l103 240l-198 487h93l97 -257l53 -141l54 140l109 258h90z" />
    <glyph glyph-name="z" unicode="z" horiz-adv-x="471" 
d="M48 494h383v-37l-278 -378h278v-79h-400v32l280 387h-263v75z" />
    <glyph glyph-name="zacute" unicode="&#x17a;" horiz-adv-x="471" 
d="M186 579v5l71 116h97v-3l-96 -118h-72zM48 419h263l-280 -387v-32h400v79h-274l274 378v37h-383v-75z" />
    <glyph glyph-name="zcaron" unicode="&#x17e;" horiz-adv-x="471" 
d="M274 565h-50l-137 128v6h82l80 -75l84 75h80v-6zM48 494h383v-37l-278 -378h278v-79h-400v32l280 387h-263v75z" />
    <glyph glyph-name="zdotaccent" unicode="&#x17c;" horiz-adv-x="471" 
d="M302 647c0 -71 -108 -71 -108 0s108 71 108 0zM431 494v-37l-274 -378h274v-79h-400v32l280 387h-263v75h383z" />
    <glyph glyph-name="fi" unicode="&#xfb01;" horiz-adv-x="590" 
d="M385 684l-1 1c-28 15 -58 23 -89 23c-104 0 -166 -66 -166 -180v-39h-97v-71h97v-417h82v417h150v71h-150v39c0 74 34 107 87 107c22 0 40 -5 60 -16zM422 646c0 71 108 71 108 -1c0 -71 -108 -71 -108 1zM435 497v-496h82v496h-82z" />
    <glyph glyph-name="fl" unicode="&#xfb02;" horiz-adv-x="588" 
d="M358 621h-1c-20 11 -37 15 -59 15c-53 0 -87 -34 -87 -108v-39h144v-72h-144v-416h-82v416h-97v72h97v39c0 113 62 179 166 179c30 0 58 -7 85 -21zM507 700v-700h-82v700h82z" />
    <glyph glyph-name="a.alt" horiz-adv-x="557" 
d="M414 78l-1 1c-41 -59 -113 -87 -182 -87c-99 0 -196 49 -196 164c0 111 98 159 198 158c59 0 124 -13 174 -41v39c0 90 -79 118 -160 118c-54 0 -119 -17 -161 -37l-15 69c58 26 116 42 177 42c132 0 239 -48 239 -193v-311h-69zM409 203c-44 26 -114 42 -164 42
c-64 0 -129 -24 -129 -91s71 -91 127 -91c84 0 163 55 166 140z" />
    <glyph glyph-name="aacute.alt" horiz-adv-x="557" 
d="M218 580v5l68 119h99v-3l-93 -121h-74zM414 78l-1 1c-41 -59 -113 -87 -182 -87c-99 0 -196 49 -196 164c0 111 98 159 198 158c59 0 124 -13 174 -41v39c0 90 -79 118 -160 118c-54 0 -119 -17 -161 -37l-15 69c58 26 116 42 177 42c132 0 239 -48 239 -193v-311h-69z
M409 203c-44 26 -114 42 -164 42c-64 0 -129 -24 -129 -91s71 -91 127 -91c84 0 163 55 166 140z" />
    <glyph glyph-name="abreve.alt" horiz-adv-x="557" 
d="M412 705h-1c4 -87 -58 -134 -137 -134c-80 0 -141 48 -137 134h66c0 -37 20 -71 71 -71c50 0 70 34 70 71h68zM414 78l-1 1c-41 -59 -113 -87 -182 -87c-99 0 -196 49 -196 164c0 111 98 159 198 158c59 0 124 -13 174 -41v39c0 90 -79 118 -160 118
c-54 0 -119 -17 -161 -37l-15 69c58 26 116 42 177 42c132 0 239 -48 239 -193v-311h-69zM409 203c-44 26 -114 42 -164 42c-64 0 -129 -24 -129 -91s71 -91 127 -91c84 0 163 55 166 140z" />
    <glyph glyph-name="acircumflex.alt" horiz-adv-x="557" 
d="M105 576l142 132h51l142 -132v-7h-83l-84 78l-84 -78h-84v7zM414 78l-1 1c-41 -59 -113 -87 -182 -87c-99 0 -196 49 -196 164c0 111 98 159 198 158c59 0 124 -13 174 -41v39c0 90 -79 118 -160 118c-54 0 -119 -17 -161 -37l-15 69c58 26 116 42 177 42
c132 0 239 -48 239 -193v-311h-69zM409 203c-44 26 -114 42 -164 42c-64 0 -129 -24 -129 -91s71 -91 127 -91c84 0 163 55 166 140z" />
    <glyph glyph-name="adieresis.alt" horiz-adv-x="557" 
d="M123 655c0 71 107 71 107 1s-107 -70 -107 -1zM332 655c0 71 107 71 107 0c0 -70 -107 -70 -107 0zM414 78l-1 1c-41 -59 -113 -87 -182 -87c-99 0 -196 49 -196 164c0 111 98 159 198 158c59 0 124 -13 174 -41v39c0 90 -79 118 -160 118c-54 0 -119 -17 -161 -37
l-15 69c58 26 116 42 177 42c132 0 239 -48 239 -193v-311h-69zM409 203c-44 26 -114 42 -164 42c-64 0 -129 -24 -129 -91s71 -91 127 -91c84 0 163 55 166 140z" />
    <glyph glyph-name="agrave.alt" horiz-adv-x="557" 
d="M163 701v3h98l68 -119v-5h-73zM414 78l-1 1c-41 -59 -113 -87 -182 -87c-99 0 -196 49 -196 164c0 111 98 159 198 158c59 0 124 -13 174 -41v39c0 90 -79 118 -160 118c-54 0 -119 -17 -161 -37l-15 69c58 26 116 42 177 42c132 0 239 -48 239 -193v-311h-69zM409 203
c-44 26 -114 42 -164 42c-64 0 -129 -24 -129 -91s71 -91 127 -91c84 0 163 55 166 140z" />
    <glyph glyph-name="amacron.alt" horiz-adv-x="557" 
d="M112 687h317v-69h-317v69zM414 78l-1 1c-41 -59 -113 -87 -182 -87c-99 0 -196 49 -196 164c0 111 98 159 198 158c59 0 124 -13 174 -41v39c0 90 -79 118 -160 118c-54 0 -119 -17 -161 -37l-15 69c58 26 116 42 177 42c132 0 239 -48 239 -193v-311h-69zM409 203
c-44 26 -114 42 -164 42c-64 0 -129 -24 -129 -91s71 -91 127 -91c84 0 163 55 166 140z" />
    <glyph glyph-name="aogonek.alt" horiz-adv-x="557" 
d="M73 460h-1c58 26 115 42 176 42c132 0 239 -47 239 -192v-352c-64 8 -117 -24 -107 -62c4 -18 24 -33 54 -33c25 0 56 12 77 38l45 -31c-23 -43 -72 -65 -120 -66c-62 -1 -109 29 -119 74c-9 40 17 107 102 120l-3 80c-41 -59 -115 -86 -184 -86c-99 0 -196 46 -196 161
c0 111 98 161 198 160c59 0 123 -13 173 -41v39c0 90 -78 118 -159 118c-54 0 -119 -17 -161 -37zM407 202c-44 26 -112 41 -162 41c-64 0 -130 -24 -130 -90c1 -67 72 -91 128 -91c84 0 161 55 164 140z" />
    <glyph glyph-name="aring.alt" horiz-adv-x="557" 
d="M164 655h1c0 63 55 96 112 96c55 0 111 -32 111 -96c0 -63 -53 -96 -113 -96c-61 0 -111 34 -111 96zM275 705h2c-74 0 -74 -97 -1 -97c76 0 74 97 -1 97zM414 78l-1 1c-41 -59 -113 -87 -182 -87c-99 0 -196 49 -196 164c0 111 98 159 198 158c59 0 124 -13 174 -41v39
c0 90 -79 118 -160 118c-54 0 -119 -17 -161 -37l-15 69c58 26 116 42 177 42c132 0 239 -48 239 -193v-311h-69zM409 203c-44 26 -114 42 -164 42c-64 0 -129 -24 -129 -91s71 -91 127 -91c84 0 163 55 166 140z" />
    <glyph glyph-name="aringacute.alt" horiz-adv-x="557" 
d="M234 746l72 93h97v-2l-96 -94h-73v3zM167 630v-2c0 -57 46 -88 104 -88c55 0 104 31 104 89s-52 88 -104 88c-53 0 -104 -30 -104 -87zM270 672h-1c70 0 72 -89 1 -89c-69 0 -69 89 0 89zM414 78l-1 1c-41 -59 -113 -87 -182 -87c-99 0 -196 49 -196 164
c0 111 98 159 198 158c59 0 124 -13 174 -41v39c0 90 -79 118 -160 118c-54 0 -119 -17 -161 -37l-15 69c58 26 116 42 177 42c132 0 239 -48 239 -193v-311h-69zM409 203c-44 26 -114 42 -164 42c-64 0 -129 -24 -129 -91s71 -91 127 -91c84 0 163 55 166 140z" />
    <glyph glyph-name="atilde.alt" horiz-adv-x="557" 
d="M123 629l2 1c15 60 69 90 125 70c12 -3 46 -24 56 -26c21 -7 44 -2 55 29l54 -23c-16 -69 -69 -89 -117 -71c-12 3 -47 24 -59 26c-24 9 -50 3 -63 -30zM414 78l-1 1c-41 -59 -113 -87 -182 -87c-99 0 -196 49 -196 164c0 111 98 159 198 158c59 0 124 -13 174 -41v39
c0 90 -79 118 -160 118c-54 0 -119 -17 -161 -37l-15 69c58 26 116 42 177 42c132 0 239 -48 239 -193v-311h-69zM409 203c-44 26 -114 42 -164 42c-64 0 -129 -24 -129 -91s71 -91 127 -91c84 0 163 55 166 140z" />
    <glyph glyph-name="g.alt" horiz-adv-x="637" 
d="M562 -10v-2c0 -172 -118 -245 -247 -245c-147 0 -240 68 -243 186h80c6 -74 73 -110 164 -110c85 0 165 50 165 169v100c-39 -68 -115 -100 -184 -100c-142 0 -253 98 -253 259c0 160 113 256 254 255c74 0 148 -34 184 -98l2 90h78v-504zM304 425l-1 -1
c-98 0 -177 -70 -177 -180s79 -181 177 -181c238 0 238 362 1 362z" />
    <glyph glyph-name="gbreve.alt" horiz-adv-x="637" 
d="M450 708l-1 -1c4 -86 -58 -133 -137 -133c-80 0 -141 47 -137 133h66c0 -37 20 -71 72 -71c50 0 70 34 70 72h67zM562 -11v-2c0 -172 -118 -245 -247 -245c-147 0 -240 68 -243 186h80c6 -74 73 -110 164 -110c85 0 165 50 165 169v100c-39 -68 -115 -100 -184 -100
c-142 0 -253 98 -253 259c0 160 113 256 254 255c74 0 148 -34 184 -98l2 90h78v-504zM304 424l-1 -1c-98 0 -177 -70 -177 -180s79 -181 177 -181c238 0 238 362 1 362z" />
    <glyph glyph-name="gcircumflex.alt" horiz-adv-x="638" 
d="M297 717h53l144 -135v-6h-84l-87 80l-86 -80h-84v6zM485 494l-3 2l-2 -90c-35 64 -109 98 -182 98c-141 0 -254 -96 -254 -256c0 -161 111 -259 252 -258c69 0 145 32 184 100v-100c0 -119 -80 -169 -165 -169c-90 0 -157 36 -162 110h-80c3 -118 96 -186 243 -186
c129 0 247 73 247 245v504h-78zM125 249l-1 1c0 110 79 180 177 180c238 0 238 -362 1 -362c-98 0 -177 71 -177 181z" />
    <glyph glyph-name="gcommaaccent.alt" horiz-adv-x="635" 
d="M334 671h-1c20 -5 35 -20 35 -44c0 -70 -107 -68 -107 1c0 9 20 54 41 117h55zM73 -69l-3 2c3 -118 96 -186 243 -186c129 0 247 73 247 245v504h-78l-2 -90c-35 64 -109 98 -182 98c-141 0 -254 -96 -254 -256c0 -161 111 -259 252 -258c69 0 145 32 184 100v-100
c0 -119 -80 -169 -165 -169c-90 0 -157 36 -162 110h-80zM301 429l-1 1c238 0 238 -362 1 -362c-98 0 -177 71 -177 181s79 180 177 180z" />
    <glyph glyph-name="gdotaccent.alt" horiz-adv-x="635" 
d="M262 661c0 71 108 71 108 -1c0 -71 -108 -71 -108 1zM480 -10l-3 2c0 -119 -80 -169 -165 -169c-90 0 -157 36 -162 110h-80c3 -118 96 -186 243 -186c129 0 247 73 247 245v504h-78l-2 -90c-35 64 -109 98 -182 98c-141 0 -254 -96 -254 -256c0 -161 111 -259 252 -258
c69 0 145 32 184 100v-100zM299 429l-1 1c238 0 238 -362 1 -362c-98 0 -177 71 -177 181s79 180 177 180z" />
    <glyph glyph-name="y.alt" horiz-adv-x="609" 
d="M534 -15v-1c0 -165 -104 -240 -230 -240c-135 0 -217 67 -226 184h79c11 -75 61 -107 146 -107c82 0 153 50 153 165v93c-43 -64 -104 -86 -173 -87c-126 0 -215 85 -215 229v273h82v-272c0 -95 56 -154 150 -154c90 1 152 72 152 161v265h82v-509z" />
    <glyph glyph-name="yacute.alt" horiz-adv-x="609" 
d="M250 578l72 123h99v-3l-97 -125h-74v5zM75 -72l3 3c9 -117 91 -184 226 -184c126 0 230 75 230 240v509h-82v-265c0 -90 -62 -161 -152 -162c-94 -1 -150 58 -150 153v272h-82v-273c0 -144 89 -229 214 -229c69 1 130 23 172 87v-93c0 -115 -71 -165 -153 -165
c-85 0 -135 32 -147 107h-79z" />
    <glyph glyph-name="ycircumflex.alt" horiz-adv-x="609" 
d="M134 578l141 129h52l140 -129v-6h-84l-83 75l-82 -75h-84v6zM534 -15v-1c0 -165 -104 -240 -230 -240c-135 0 -217 67 -226 184h79c11 -75 61 -107 146 -107c82 0 153 50 153 165v93c-43 -64 -104 -86 -173 -87c-126 0 -215 85 -215 229v273h82v-272
c0 -95 56 -154 150 -154c90 1 152 72 152 161v265h82v-509z" />
    <glyph glyph-name="ydieresis.alt" horiz-adv-x="609" 
d="M145 653c0 69 104 69 104 0c0 -68 -104 -68 -104 0zM369 653c0 69 104 69 104 0c0 -68 -104 -68 -104 0zM75 -72l3 3c9 -117 91 -184 226 -184c126 0 230 75 230 240v509h-82v-265c0 -90 -62 -161 -152 -162c-94 -1 -150 58 -150 153v272h-82v-273
c0 -144 89 -229 214 -229c69 1 130 23 172 87v-93c0 -115 -71 -165 -153 -165c-85 0 -135 32 -147 107h-79z" />
    <glyph glyph-name="ygrave.alt" horiz-adv-x="609" 
d="M189 698v3h99l72 -123v-5h-74zM534 -15v-1c0 -165 -104 -240 -230 -240c-135 0 -217 67 -226 184h79c11 -75 61 -107 146 -107c82 0 153 50 153 165v93c-43 -64 -104 -86 -173 -87c-126 0 -215 85 -215 229v273h82v-272c0 -95 56 -154 150 -154c90 1 152 72 152 161v265
h82v-509z" />
    <glyph glyph-name="Omega" unicode="&#x3a9;" horiz-adv-x="817" 
d="M84 76h122c-103 61 -154 164 -154 279c0 193 132 358 356 358c225 0 357 -165 357 -358c0 -115 -51 -218 -154 -280h123v-76h-250v78c130 35 195 156 195 276c0 143 -89 278 -270 278s-270 -135 -270 -278c0 -120 65 -241 195 -275v-78h-250v76z" />
    <glyph glyph-name="_375" unicode="&#x394;" 
d="M679 0h-687l314 700h59zM335 602l-231 -530h463z" />
    <glyph glyph-name="mu" unicode="&#x3bc;" horiz-adv-x="607" 
d="M83 -221v1v705h85v-281c0 -98 75 -152 150 -152c73 0 145 51 145 164v268h86v-484h-77l-7 61c-29 -56 -93 -82 -149 -82c-59 0 -122 20 -148 83v-283h-85z" />
    <glyph glyph-name="pi" unicode="&#x3c0;" horiz-adv-x="681" 
d="M143 0l-1 -1v423h-114v71h620v-71h-116v-274c0 -62 19 -99 96 -86l5 -65c-125 -23 -182 38 -181 151v275h-228v-423h-81z" />
    <glyph glyph-name="zero" unicode="0" horiz-adv-x="690" 
d="M62 420c0 388 566 387 566 0v-140c0 -387 -566 -388 -566 0v140zM149 280c0 -279 392 -278 392 1v140c0 276 -392 278 -392 -1v-140z" />
    <glyph glyph-name="one" unicode="1" horiz-adv-x="422" 
d="M52 73h130v518l-123 -33v80l210 62v-627h127v-73h-344v73z" />
    <glyph glyph-name="two" unicode="2" horiz-adv-x="674" 
d="M155 506h-87c6 156 148 202 277 202c130 0 270 -53 270 -209c0 -159 -139 -209 -274 -209c-82 -1 -190 -21 -190 -121v-86h461v-83h-549v169c0 158 144 202 277 202c74 0 189 26 189 127c0 102 -95 132 -184 134c-86 0 -189 -30 -190 -126z" />
    <glyph glyph-name="three" unicode="3" horiz-adv-x="671" 
d="M66 518l-2 1c1 148 147 192 270 192c151 0 265 -74 266 -198c0 -72 -52 -134 -125 -151c76 -19 139 -83 139 -161c0 -138 -124 -209 -281 -209c-126 0 -279 44 -279 199h87c1 -105 119 -119 194 -119c111 0 192 45 192 126c0 59 -53 125 -188 125h-113v73h107
c108 0 180 50 181 116c1 58 -52 119 -179 119c-75 0 -183 -19 -183 -113h-86z" />
    <glyph glyph-name="four" unicode="4" horiz-adv-x="660" 
d="M442 147h-404l-12 96l364 457h140v-472h85v-81h-85v-147h-88v147zM442 228v406l-324 -406h324z" />
    <glyph glyph-name="five" unicode="5" horiz-adv-x="658" 
d="M345 439c170 0 266 -85 266 -219c0 -135 -107 -226 -272 -226c-139 0 -276 48 -277 207h87c0 -102 107 -125 188 -125c111 0 187 54 187 143c0 82 -61 138 -179 138h-270v343h496v-80h-411v-181h185z" />
    <glyph glyph-name="six" unicode="6" horiz-adv-x="692" 
d="M161 350c46 63 127 85 199 85c136 0 280 -60 280 -223c0 -157 -145 -223 -281 -223c-138 0 -284 68 -284 226v286c0 143 138 210 276 210c145 0 271 -59 276 -190h-87c-3 77 -91 116 -188 116s-191 -49 -191 -137v-150zM359 69c93 1 194 38 194 143
c0 104 -97 145 -192 145s-198 -46 -198 -145c0 -104 103 -143 196 -143z" />
    <glyph glyph-name="seven" unicode="7" horiz-adv-x="561" 
d="M442 618h-411v82h512l7 -56l-350 -644h-99z" />
    <glyph glyph-name="eight" unicode="8" horiz-adv-x="703" 
d="M57 198c0 77 57 142 135 164c-72 28 -120 74 -120 152c0 144 144 200 279 200c134 0 281 -55 282 -200c0 -70 -51 -126 -124 -151c77 -22 136 -91 137 -167c1 -165 -154 -212 -295 -211c-139 0 -295 45 -294 213zM545 516c1 88 -108 125 -195 125
c-91 0 -192 -40 -191 -125c1 -86 111 -119 192 -119c82 0 194 33 194 119zM351 328c-85 2 -207 -32 -207 -129s112 -134 206 -134c93 0 209 36 209 133c0 95 -124 130 -208 130z" />
    <glyph glyph-name="nine" unicode="9" horiz-adv-x="690" 
d="M532 202v153c-45 -66 -126 -88 -199 -88c-136 0 -280 60 -280 223c0 157 145 223 281 223c138 0 284 -68 284 -226v-286c0 -143 -138 -210 -276 -210c-145 0 -272 59 -277 190h87c3 -74 92 -113 189 -113c94 0 191 46 191 134zM334 634c-91 -1 -193 -39 -193 -144
c0 -103 98 -145 192 -145c95 0 197 46 197 145c0 104 -102 144 -196 144z" />
    <glyph glyph-name="zero.denom" horiz-adv-x="389" 
d="M41 205c0 213 307 212 307 0v-53c0 -214 -307 -214 -307 0v53zM106 151c0 -129 175 -131 175 0v53c0 134 -175 134 -175 0v-53z" />
    <glyph glyph-name="one.denom" horiz-adv-x="255" 
d="M36 57h63v230l-54 -14v58l120 29v-303h64v-57h-193v57z" />
    <glyph glyph-name="two.denom" horiz-adv-x="363" 
d="M40 0l1 1v87c0 83 75 106 142 112c44 3 75 17 75 56s-30 54 -76 54c-38 0 -73 -10 -74 -52h-65c0 82 71 110 138 110c74 0 142 -27 142 -112c0 -93 -77 -106 -130 -111c-36 -4 -86 -12 -86 -58v-22h211v-65h-278z" />
    <glyph glyph-name="three.denom" horiz-adv-x="366" 
d="M104 105h-2c4 -44 48 -50 77 -50c33 0 79 9 79 53c0 22 -19 52 -77 52h-56v54h52c37 0 74 9 74 48c0 20 -20 49 -74 49c-32 0 -74 -9 -77 -52h-59c0 77 70 107 137 107c69 0 139 -33 140 -105c0 -36 -20 -66 -53 -76c40 -11 62 -47 62 -77c0 -88 -79 -114 -149 -114
c-69 0 -141 29 -142 111h68z" />
    <glyph glyph-name="four.denom" horiz-adv-x="365" 
d="M285 361v-229h42v-59h-42v-72h-65v72h-192l-3 54l172 234h88zM220 132v166l-123 -166h123z" />
    <glyph glyph-name="five.denom" horiz-adv-x="362" 
d="M181 230l1 -1c90 0 147 -40 146 -119c0 -75 -58 -118 -145 -118c-72 0 -143 26 -144 110h64c0 -38 38 -50 78 -50c58 0 80 26 80 59c0 31 -19 61 -80 61h-134v189h259v-58h-196v-73h71z" />
    <glyph glyph-name="six.denom" horiz-adv-x="376" 
d="M112 195h-1c20 20 53 29 82 29c71 0 146 -25 146 -115c0 -83 -76 -115 -146 -115c-72 0 -146 35 -146 117v139c0 82 71 117 142 117c76 0 141 -30 144 -99h-65c-3 27 -31 41 -78 41c-44 0 -78 -17 -78 -59v-55zM193 51v-1c38 0 80 15 80 59c0 43 -41 60 -80 60
c-40 0 -82 -18 -82 -59c0 -44 42 -59 82 -59z" />
    <glyph glyph-name="seven.denom" horiz-adv-x="317" 
d="M29 361h267l4 -29l-171 -332h-75l159 302h-184v59z" />
    <glyph glyph-name="eight.denom" horiz-adv-x="384" 
d="M40 101h1c0 40 28 74 69 86c-37 13 -62 40 -62 78c0 75 75 104 145 104c69 0 146 -28 146 -104c0 -37 -21 -64 -61 -78c40 -12 68 -48 68 -87c0 -84 -81 -110 -154 -109c-72 0 -153 26 -152 110zM272 265v-1c0 38 -45 51 -79 51s-79 -13 -79 -50c0 -36 36 -51 79 -51
c42 0 78 15 79 51zM278 101v-2c0 39 -44 58 -85 58s-85 -17 -85 -57c0 -36 45 -54 85 -54c39 0 85 18 85 55z" />
    <glyph glyph-name="nine.denom" horiz-adv-x="375" 
d="M328 110l1 -1c0 -82 -71 -117 -142 -117c-76 0 -141 30 -144 100h65c3 -27 31 -41 78 -41c44 0 78 17 78 59v55c-20 -20 -53 -29 -82 -29c-71 0 -146 25 -146 115c0 83 76 115 146 115c72 0 146 -35 146 -116v-140zM182 308v2c-38 0 -80 -15 -80 -59c0 -43 41 -60 80 -60
c40 0 82 18 82 58c0 44 -42 59 -82 59z" />
    <glyph glyph-name="zero.num" horiz-adv-x="389" 
d="M41 551v1c0 213 307 212 307 -1v-53c0 -214 -307 -214 -307 0v53zM105 498c0 -129 175 -131 175 0v54c0 134 -175 134 -175 0v-54z" />
    <glyph glyph-name="one.num" horiz-adv-x="258" 
d="M38 408h63v229l-54 -13v58l120 29v-303h64v-58h-193v58z" />
    <glyph glyph-name="two.num" horiz-adv-x="365" 
d="M43 600l2 -1c0 82 71 110 138 110c74 0 142 -27 142 -112c0 -96 -82 -107 -135 -112c-34 -3 -81 -12 -81 -57v-21h212v-65h-279v87c0 78 67 104 132 110c48 4 84 17 84 59c0 39 -30 54 -76 54c-38 0 -73 -10 -74 -52h-65z" />
    <glyph glyph-name="three.num" horiz-adv-x="367" 
d="M105 448l-2 1c4 -44 48 -50 77 -50c33 0 79 9 79 52c0 22 -19 52 -77 52h-56v54h52c37 0 74 9 74 48c0 20 -20 49 -74 49c-32 0 -74 -9 -77 -52h-59c0 77 70 107 137 107c69 0 139 -33 140 -105c0 -36 -20 -66 -53 -75c40 -11 62 -47 62 -78c0 -88 -79 -114 -149 -114
c-69 0 -141 29 -142 111h68z" />
    <glyph glyph-name="four.num" horiz-adv-x="365" 
d="M285 702v-229h42v-59h-42v-72h-65v72h-192l-3 54l172 234h88zM220 473v166l-123 -166h123z" />
    <glyph glyph-name="five.num" horiz-adv-x="361" 
d="M180 570v-1c90 0 147 -40 147 -119c0 -75 -58 -118 -144 -118c-72 0 -143 26 -144 110h64c0 -38 38 -50 78 -50c58 0 80 26 80 59c0 31 -19 61 -81 61h-133v189h259v-58h-196v-73h70z" />
    <glyph glyph-name="six.num" horiz-adv-x="376" 
d="M112 538l-1 1c20 20 53 29 82 29c71 0 146 -25 146 -116c0 -83 -76 -115 -146 -115c-72 0 -146 35 -146 116v140c0 82 71 117 142 117c76 0 141 -30 144 -99h-65c-3 27 -31 41 -78 41c-44 0 -78 -17 -78 -59v-55zM192 395c38 0 80 15 80 58s-41 60 -80 60
c-40 0 -82 -18 -82 -59c0 -44 42 -59 82 -59z" />
    <glyph glyph-name="seven.num" horiz-adv-x="317" 
d="M29 701h267l4 -29l-171 -332h-75l159 301h-184v60z" />
    <glyph glyph-name="eight.num" horiz-adv-x="385" 
d="M39 443l2 -3c0 40 28 74 68 86c-37 13 -62 40 -62 79c0 75 75 104 145 104c69 0 146 -28 146 -103c0 -37 -21 -64 -60 -78c40 -12 68 -48 68 -86c0 -84 -81 -110 -154 -109c-72 0 -153 26 -153 110zM272 603c0 38 -45 51 -78 51c-34 0 -79 -13 -78 -51
c0 -36 36 -51 78 -51s78 15 78 51zM279 440c0 39 -44 58 -85 58s-85 -17 -85 -58c0 -36 45 -54 85 -54c39 0 85 18 85 54z" />
    <glyph glyph-name="nine.num" horiz-adv-x="376" 
d="M263 510h2c-20 -20 -53 -29 -82 -29c-71 0 -146 25 -146 115c0 83 76 115 146 115c72 0 146 -35 146 -117v-139c0 -82 -71 -117 -143 -117c-76 0 -141 30 -144 99h65c3 -27 31 -41 78 -41c44 0 78 17 78 59v55zM265 595v1c0 44 -42 59 -82 59c-38 0 -80 -15 -80 -59
c0 -43 41 -60 80 -60c40 0 82 18 82 59z" />
    <glyph glyph-name="zero.tf" 
d="M64 419c0 390 565 389 565 0v-137c0 -389 -565 -390 -565 0v137zM152 282v-1c0 -279 389 -278 389 1v137c0 276 -389 278 -389 0v-137z" />
    <glyph glyph-name="one.tf" 
d="M128 75h183v516l-168 -41v80l256 70v-625h194v-75h-465v75z" />
    <glyph glyph-name="two.tf" 
d="M75 506l-1 -1c6 160 147 203 276 203c134 0 273 -53 274 -210c0 -159 -139 -208 -273 -208c-82 -1 -190 -21 -190 -121v-86h461v-84h-550v170c0 158 144 202 277 202c74 0 189 25 189 126c0 100 -98 134 -186 135c-88 0 -187 -29 -189 -126h-88z" />
    <glyph glyph-name="three.tf" 
d="M77 518l-2 1c1 148 147 192 270 192c151 0 265 -73 266 -197c0 -68 -52 -135 -125 -152c76 -19 139 -87 139 -161c0 -138 -124 -209 -281 -209c-126 0 -279 44 -279 199h88c1 -102 118 -119 193 -119c111 0 190 49 190 126c0 59 -51 125 -186 125h-113v73h107
c108 0 180 50 181 116c1 58 -52 119 -179 119c-75 0 -182 -19 -182 -113h-87z" />
    <glyph glyph-name="four.tf" 
d="M546 700v-469h85v-84h-85v-147h-88v147h-404l-12 96l365 457h139zM458 626l-317 -395h317v395z" />
    <glyph glyph-name="five.tf" 
d="M364 439l1 1c171 0 265 -86 264 -220c0 -135 -107 -226 -273 -226c-139 0 -277 48 -278 207h89c0 -102 107 -123 188 -123c111 0 185 52 185 141c0 82 -59 138 -176 138h-271v343h496v-83h-410v-178h185z" />
    <glyph glyph-name="six.tf" 
d="M162 350l1 -3c45 66 124 88 197 88c136 0 280 -60 280 -223c0 -157 -145 -223 -281 -223c-138 0 -284 68 -284 226v286c0 143 138 210 276 210c145 0 271 -59 276 -190h-90c-3 74 -89 113 -186 113c-94 0 -189 -46 -189 -134v-150zM358 69v1c92 0 193 37 193 142
c0 98 -97 145 -192 145s-196 -46 -196 -145c0 -104 101 -143 195 -143z" />
    <glyph glyph-name="seven.tf" 
d="M502 616h-407v84h516l7 -56l-350 -644h-103z" />
    <glyph glyph-name="eight.tf" 
d="M51 196l2 2c0 77 57 142 135 164c-72 28 -120 78 -120 150c0 144 144 202 279 202c134 0 281 -57 281 -202c0 -70 -51 -124 -125 -149c77 -22 136 -91 137 -167c1 -156 -154 -212 -295 -211c-139 0 -295 54 -294 211zM537 516c1 88 -103 125 -190 125
c-91 0 -190 -40 -189 -125c1 -86 109 -119 189 -119c82 0 189 33 190 119zM347 328v2c-82 0 -202 -34 -203 -131c0 -88 110 -129 203 -129s203 40 203 128c0 95 -118 130 -203 130z" />
    <glyph glyph-name="nine.tf" 
d="M531 352l-1 3c-45 -66 -124 -88 -196 -88c-136 0 -280 60 -280 223c0 157 145 223 281 223c138 0 284 -68 284 -226v-286c0 -143 -138 -210 -276 -210c-145 0 -272 59 -277 190h89c3 -74 90 -113 187 -113c94 0 189 46 189 134v150zM335 633l-1 -1
c-92 0 -193 -37 -193 -142c0 -103 97 -145 192 -145s196 46 196 145c0 104 -101 143 -194 143z" />
    <glyph glyph-name="fraction" unicode="&#x2044;" horiz-adv-x="153" 
d="M-152 -3l379 708h77l-379 -708h-77z" />
    <glyph glyph-name="onehalf" unicode="&#xbd;" horiz-adv-x="796" 
d="M137 -2l378 707h78l-379 -707h-77zM48 399h62v230l-54 -13v58l121 29v-304h64v-57h-193v57zM473 256h1c0 82 71 110 138 110c74 0 142 -27 142 -111c0 -97 -85 -106 -138 -112c-32 -3 -77 -13 -77 -57v-26h208v-61h-275v87c0 73 60 102 122 107c51 5 93 16 93 61
c0 39 -30 54 -76 54c-38 0 -73 -10 -73 -52h-65z" />
    <glyph glyph-name="uni2153" unicode="&#x2153;" horiz-adv-x="760" 
d="M49 404h63v229l-54 -13v58l120 29v-303h64v-57h-193v57zM198 -3h-74l378 708h76zM500 106h1c4 -44 48 -50 77 -50c33 0 79 9 79 53c0 22 -19 52 -77 52h-56v54h52c37 0 74 9 74 48c0 20 -20 49 -75 49c-32 0 -74 -9 -78 -52h-58c0 77 70 107 137 107
c69 0 139 -33 139 -105c0 -36 -20 -66 -53 -76c40 -11 62 -47 62 -77c0 -88 -79 -114 -149 -114c-69 0 -141 29 -142 111h67z" />
    <glyph glyph-name="uni2154" unicode="&#x2154;" horiz-adv-x="839" 
d="M49 599h3c0 82 71 110 138 110c74 0 142 -27 142 -112c0 -96 -82 -107 -135 -112c-34 -3 -82 -12 -82 -57v-22h208v-64h-274v87c0 75 62 103 125 108c50 5 90 16 90 60c0 39 -30 54 -76 54c-38 0 -73 -10 -74 -52h-65zM582 705h76l-380 -708h-75zM603 161h-1v54h51
c37 0 74 9 75 48c0 20 -20 49 -74 49c-32 0 -74 -9 -78 -52h-59c0 77 70 107 137 107c69 0 139 -33 139 -105c0 -36 -20 -66 -53 -76c40 -11 62 -47 62 -77c0 -88 -79 -114 -149 -114c-69 0 -141 29 -142 111h68c4 -44 48 -50 77 -50c33 0 79 9 79 53c0 22 -19 52 -77 52
h-55z" />
    <glyph glyph-name="onequarter" unicode="&#xbc;" horiz-adv-x="747" 
d="M139 -2l377 707h78l-379 -707h-76zM48 399h63v229l-54 -13v58l120 29v-303h64v-57h-193v57zM669 361v-229h43v-59h-43v-72h-64v72h-192l-4 54l173 234h87zM605 132v166l-124 -166h124z" />
    <glyph glyph-name="threequarters" unicode="&#xbe;" horiz-adv-x="781" 
d="M129 511l-2 1v53h51c37 0 73 9 73 47c0 19 -20 48 -73 48c-31 0 -72 -9 -75 -51h-58c0 75 69 104 134 104c67 0 135 -32 136 -102c0 -35 -20 -65 -52 -74c39 -10 60 -46 60 -75c0 -86 -76 -112 -144 -112c-66 0 -136 28 -137 108h65c4 -43 47 -49 75 -49c32 0 77 9 77 52
c0 21 -19 50 -75 50h-55zM186 -2l378 708h78l-380 -708h-76zM704 362v-229h42v-59h-42v-72h-64v72h-192l-4 54l173 234h87zM640 133v166l-124 -166h124z" />
    <glyph glyph-name="oneeighth" unicode="&#x215b;" horiz-adv-x="785" 
d="M49 404h63v229l-54 -13v58l120 29v-303h64v-57h-193v57zM124 -3l378 708h76l-380 -708h-74zM440 102h1c0 40 28 74 69 86c-37 13 -62 40 -62 79c0 75 75 104 145 104c69 0 146 -28 146 -104c0 -37 -21 -64 -60 -78c40 -12 68 -48 68 -87c0 -84 -81 -110 -154 -110
c-72 0 -153 26 -153 110zM672 265c0 38 -45 51 -78 51c-34 0 -79 -13 -78 -51c0 -36 36 -51 78 -51s78 15 78 51zM679 102c0 39 -44 58 -85 58s-85 -17 -85 -58c0 -36 45 -54 85 -54c39 0 85 18 85 54z" />
    <glyph glyph-name="threeeighths" unicode="&#x215c;" horiz-adv-x="845" 
d="M133 500h-2v54h52c37 0 74 9 74 48c0 20 -20 49 -74 49c-32 0 -74 -9 -77 -52h-59c0 77 70 107 137 107c69 0 139 -33 140 -105c0 -36 -20 -66 -53 -76c40 -11 62 -47 62 -77c0 -88 -79 -114 -149 -114c-69 0 -141 29 -142 111h68c4 -44 48 -50 77 -50c33 0 79 9 79 53
c0 22 -19 52 -77 52h-56zM567 705h76l-380 -708h-74zM500 102h1c0 40 28 74 69 86c-37 13 -62 40 -62 79c0 75 75 104 145 104c69 0 146 -28 146 -104c0 -37 -21 -64 -60 -78c40 -12 68 -48 68 -87c0 -84 -81 -110 -154 -110c-72 0 -153 26 -153 110zM732 265
c0 38 -45 51 -78 51c-34 0 -79 -13 -78 -51c0 -36 36 -51 78 -51s78 15 78 51zM739 102c0 39 -44 58 -85 58s-85 -17 -85 -58c0 -36 45 -54 85 -54c39 0 85 18 85 54z" />
    <glyph glyph-name="fiveeighths" unicode="&#x215d;" horiz-adv-x="847" 
d="M191 -3l378 708h76l-380 -708h-74zM52 513v188h258v-58h-195v-73h70c90 0 147 -40 147 -119c0 -75 -58 -118 -144 -118c-72 0 -143 26 -144 110h64c0 -38 38 -50 78 -50c58 0 80 26 80 59c0 31 -19 61 -81 61h-133zM502 102h1c0 40 28 74 69 86c-37 13 -62 40 -62 79
c0 75 75 104 145 104c69 0 146 -28 146 -104c0 -37 -21 -64 -60 -78c40 -12 68 -48 68 -87c0 -84 -81 -110 -154 -110c-72 0 -153 26 -153 110zM734 265c0 38 -45 51 -78 51c-34 0 -79 -13 -78 -51c0 -36 36 -51 78 -51s78 15 78 51zM741 102c0 39 -44 58 -85 58
s-85 -17 -85 -58c0 -36 45 -54 85 -54c39 0 85 18 85 54z" />
    <glyph glyph-name="seveneighths" unicode="&#x215e;" horiz-adv-x="764" 
d="M482 705h76l-380 -708h-74zM223 642h-184v59h267l4 -29l-171 -332h-75zM420 102h2c0 40 28 74 69 86c-37 13 -62 40 -62 79c0 75 75 104 144 104s146 -28 146 -104c0 -37 -21 -64 -61 -78c40 -12 68 -48 68 -87c0 -84 -81 -110 -154 -110c-72 0 -153 26 -152 110z
M653 265c0 38 -45 51 -79 51s-79 -13 -79 -51c0 -36 36 -51 79 -51c42 0 78 15 79 51zM659 102c0 39 -44 58 -85 58s-85 -17 -85 -58c0 -36 45 -54 85 -54c39 0 85 18 85 54z" />
    <glyph glyph-name="eightinferior" unicode="&#x2088;" horiz-adv-x="385" 
d="M39 18h1c0 40 28 74 69 86c-37 13 -62 40 -62 79c0 75 75 104 145 104c69 0 146 -28 146 -104c0 -37 -21 -64 -60 -78c40 -12 68 -48 68 -87c0 -84 -81 -110 -154 -110c-72 0 -153 26 -153 110zM271 181c0 38 -45 51 -78 51c-34 0 -79 -13 -78 -51c0 -36 36 -51 78 -51
s78 15 78 51zM278 18c0 39 -44 58 -85 58s-85 -17 -85 -58c0 -36 45 -54 85 -54c39 0 85 18 85 54z" />
    <glyph glyph-name="fiveinferior" unicode="&#x2085;" horiz-adv-x="362" 
d="M181 145l1 -1c90 0 147 -40 146 -119c0 -75 -58 -118 -145 -118c-72 0 -143 26 -144 110h64c0 -38 38 -50 78 -50c58 0 80 26 80 59c0 31 -19 61 -80 61h-134v189h259v-58h-196v-73h71z" />
    <glyph glyph-name="fourinferior" unicode="&#x2084;" horiz-adv-x="365" 
d="M285 275v-230h42v-59h-42v-72h-65v72h-192l-3 55l172 234h88zM220 45v167l-123 -167h123z" />
    <glyph glyph-name="nineinferior" unicode="&#x2089;" horiz-adv-x="374" 
d="M328 25l1 1c0 -82 -71 -117 -142 -117c-76 0 -141 30 -144 99h65c3 -27 31 -41 78 -41c44 0 78 17 78 59v54c-20 -20 -53 -29 -82 -29c-71 0 -146 25 -146 115c0 83 76 115 146 115c72 0 146 -35 146 -117v-139zM182 225v1c-38 0 -80 -15 -80 -59c0 -43 41 -60 80 -60
c40 0 82 18 82 59c0 44 -42 59 -82 59z" />
    <glyph glyph-name="oneinferior" unicode="&#x2081;" horiz-adv-x="256" 
d="M37 -28h63v229l-54 -13v58l120 29v-303h64v-58h-193v58z" />
    <glyph glyph-name="seveninferior" unicode="&#x2087;" horiz-adv-x="315" 
d="M28 275h267l4 -28l-171 -333h-75l159 302h-184v59z" />
    <glyph glyph-name="sixinferior" unicode="&#x2086;" horiz-adv-x="375" 
d="M112 110l-1 -1c20 20 53 29 82 29c71 0 146 -25 146 -115c0 -83 -76 -115 -146 -115c-72 0 -146 35 -146 117v139c0 82 71 117 142 117c76 0 141 -30 144 -99h-65c-3 27 -31 41 -78 41c-44 0 -78 -17 -78 -59v-54zM193 -36v-1c38 0 80 15 80 59c0 43 -41 60 -80 60
c-40 0 -82 -18 -82 -59c0 -44 42 -59 82 -59z" />
    <glyph glyph-name="threeinferior" unicode="&#x2083;" horiz-adv-x="366" 
d="M104 19l-1 3c4 -44 48 -51 77 -51c33 0 79 10 79 53c0 22 -19 52 -77 52h-55v53h51c37 0 74 9 75 48c0 20 -20 49 -74 49c-32 0 -74 -9 -78 -52h-59c0 77 70 107 137 107c69 0 139 -33 139 -105c0 -36 -20 -66 -53 -75c40 -11 62 -47 62 -78c0 -88 -79 -114 -149 -114
c-69 0 -141 29 -142 110h68z" />
    <glyph glyph-name="twoinferior" unicode="&#x2082;" horiz-adv-x="363" 
d="M41 172h2c0 82 71 110 138 110c74 0 142 -27 142 -112c0 -94 -80 -106 -133 -111c-35 -3 -84 -11 -84 -57v-21h212v-65h-279v87c0 76 65 103 130 108c49 4 87 16 87 59c0 39 -30 54 -76 54c-38 0 -73 -10 -74 -52h-65z" />
    <glyph glyph-name="zeroinferior" unicode="&#x2080;" horiz-adv-x="389" 
d="M41 122c0 213 307 212 307 0v-53c0 -213 -307 -213 -307 0v53zM105 68c0 -129 175 -131 175 0v53c0 134 -175 134 -175 0v-53z" />
    <glyph glyph-name="ordfeminine" unicode="&#xaa;" horiz-adv-x="503" 
d="M354 377l-1 -1l-1 56c-25 -42 -74 -62 -117 -63c-93 0 -166 61 -166 170c0 108 75 168 168 168c46 0 92 -22 117 -60v54h65v-324h-65zM241 642l2 -1c-57 0 -102 -41 -102 -103c0 -63 45 -104 101 -104c135 0 135 208 -1 208zM83 315h343v-65h-343v65z" />
    <glyph glyph-name="ordmasculine" unicode="&#xba;" horiz-adv-x="482" 
d="M241 368c-95 0 -171 61 -171 170c0 108 75 168 170 168s170 -60 170 -167c0 -108 -76 -171 -169 -171zM241 434c60 0 101 41 101 104s-45 106 -102 106s-100 -43 -100 -105c0 -63 40 -105 101 -105zM80 308h325v-65h-325v65z" />
    <glyph glyph-name="zerosuperior" unicode="&#x2070;" horiz-adv-x="389" 
d="M41 662v1c0 213 307 212 307 -1v-53c0 -214 -307 -214 -307 0v53zM105 609c0 -129 175 -131 175 0v54c0 134 -175 134 -175 0v-54z" />
    <glyph glyph-name="onesuperior" unicode="&#xb9;" horiz-adv-x="255" 
d="M37 470h63v230l-54 -14v58l120 29v-303h64v-57h-193v57z" />
    <glyph glyph-name="twosuperior" unicode="&#xb2;" horiz-adv-x="364" 
d="M44 671l1 -1c0 82 71 110 138 110c74 0 142 -27 142 -112c0 -96 -83 -107 -137 -112c-33 -3 -79 -12 -79 -57v-21h211v-65h-278v87c0 76 64 104 129 110c49 4 87 16 87 59c0 39 -30 54 -75 54c-38 0 -73 -10 -74 -52h-65z" />
    <glyph glyph-name="threesuperior" unicode="&#xb3;" horiz-adv-x="364" 
d="M103 519h-2c4 -44 48 -50 77 -50c33 0 79 9 79 53c0 22 -19 52 -76 52h-56v54h52c37 0 74 9 75 48c0 20 -20 49 -74 49c-32 0 -74 -9 -78 -52h-59c0 77 70 107 136 107c69 0 139 -33 139 -105c0 -36 -20 -66 -53 -76c40 -11 62 -47 62 -77c0 -88 -79 -114 -148 -114
s-141 29 -142 111h68z" />
    <glyph glyph-name="foursuperior" unicode="&#x2074;" horiz-adv-x="366" 
d="M285 817v-229h43v-59h-43v-72h-65v72h-192l-3 54l172 234h88zM220 588v166l-123 -166h123z" />
    <glyph glyph-name="fivesuperior" unicode="&#x2075;" horiz-adv-x="362" 
d="M181 686l1 -2c90 0 147 -40 146 -118c0 -75 -58 -118 -145 -118c-72 0 -143 26 -144 109h64c0 -38 38 -50 78 -50c58 0 80 26 80 60c0 31 -19 61 -80 61h-134v188h259v-58h-196v-72h71z" />
    <glyph glyph-name="sixsuperior" unicode="&#x2076;" horiz-adv-x="375" 
d="M112 649l-1 -1c20 20 53 29 82 29c71 0 146 -25 146 -115c0 -83 -76 -115 -146 -115c-72 0 -146 35 -146 117v139c0 82 71 117 142 117c76 0 141 -30 144 -99h-65c-3 27 -31 41 -78 41c-44 0 -78 -17 -78 -59v-54zM193 503v-1c38 0 80 15 80 59c0 43 -41 60 -80 60
c-40 0 -82 -18 -82 -59c0 -44 42 -59 82 -59z" />
    <glyph glyph-name="sevensuperior" unicode="&#x2077;" horiz-adv-x="317" 
d="M29 816h267l4 -28l-171 -332h-75l159 301h-184v59z" />
    <glyph glyph-name="eightsuperior" unicode="&#x2078;" horiz-adv-x="384" 
d="M38 552l2 1c0 40 28 74 68 86c-37 13 -62 40 -62 78c0 75 75 104 145 104c69 0 146 -28 146 -104c0 -37 -21 -64 -60 -79c40 -12 68 -48 68 -87c0 -84 -81 -110 -154 -109c-72 0 -153 26 -153 110zM271 717v-1c0 38 -45 51 -78 51c-34 0 -79 -13 -78 -50
c0 -36 36 -51 78 -51s78 15 78 51zM278 553v-2c0 39 -44 58 -85 58s-85 -17 -85 -57c0 -36 45 -54 85 -54c39 0 85 18 85 55z" />
    <glyph glyph-name="ninesuperior" unicode="&#x2079;" horiz-adv-x="377" 
d="M328 565l2 -1c0 -82 -71 -117 -143 -117c-76 0 -141 30 -144 99h65c3 -27 31 -41 78 -41c44 0 78 17 78 59v55c-20 -20 -53 -29 -82 -29c-71 0 -146 25 -146 116c0 83 76 115 146 115c72 0 146 -35 146 -116v-140zM183 763c-38 0 -80 -15 -80 -58s41 -60 80 -60
c40 0 82 18 82 59c0 44 -42 59 -82 59z" />
    <glyph glyph-name="asterisk" unicode="*" horiz-adv-x="377" 
d="M243 456l-56 79l-55 -79l-53 38l61 74l-85 21l18 62l85 -30l-3 87h65l-5 -88l90 30l18 -61l-90 -21l62 -74z" />
    <glyph glyph-name="backslash" unicode="\" horiz-adv-x="491" 
d="M380 -82l-355 844h86l355 -844h-86z" />
    <glyph glyph-name="bullet" unicode="&#x2022;" horiz-adv-x="395" 
d="M198 171v1c-64 0 -112 43 -112 109s48 110 112 110c62 0 110 -44 110 -111c0 -66 -48 -109 -110 -109z" />
    <glyph glyph-name="colon" unicode=":" horiz-adv-x="245" 
d="M69 341c0 71 107 71 107 0s-107 -71 -107 0zM69 46c0 71 107 71 107 0s-107 -71 -107 0z" />
    <glyph glyph-name="comma" unicode="," horiz-adv-x="237" 
d="M99 -3l1 2c-20 5 -35 20 -35 44c0 70 107 68 107 -2c0 -9 -23 -70 -43 -134h-55z" />
    <glyph glyph-name="ellipsis" unicode="&#x2026;" horiz-adv-x="633" 
d="M65 45c0 71 108 71 108 -1c0 -71 -108 -71 -108 1zM263 45c0 71 108 71 108 -1c0 -71 -108 -71 -108 1zM460 45c0 71 108 71 108 -1c0 -71 -108 -71 -108 1z" />
    <glyph glyph-name="exclam" unicode="!" horiz-adv-x="264" 
d="M175 700v-540h-87v540h87zM75 52c0 76 116 76 116 0s-116 -76 -116 0z" />
    <glyph glyph-name="exclamdown" unicode="&#xa1;" horiz-adv-x="246" 
d="M179 432c0 -76 -116 -76 -116 1c0 76 116 76 116 -1zM167 -215v539h-88v-539h88z" />
    <glyph glyph-name="numbersign" unicode="#" horiz-adv-x="663" 
d="M333 700l-39 -160h167l40 160h82l-40 -160h82v-73h-100l-61 -237h88v-75h-105l-38 -155h-82l38 155h-168l-38 -155h-81l38 155h-79v75h97l61 237h-84v73h101l39 160h82zM277 471l-63 -245h168l62 245h-167z" />
    <glyph glyph-name="period" unicode="." horiz-adv-x="238" 
d="M65 45c0 71 108 71 108 -1c0 -71 -108 -71 -108 1z" />
    <glyph glyph-name="periodcentered" unicode="&#xb7;" horiz-adv-x="250" 
d="M69 283c0 74 112 74 112 0s-112 -74 -112 0z" />
    <glyph glyph-name="question" unicode="?" horiz-adv-x="607" 
d="M119 500h-84c0 150 134 208 266 208c134 0 269 -52 268 -207c0 -140 -104 -165 -165 -193c-69 -26 -84 -49 -84 -139h-87c0 134 44 175 135 207c55 22 114 45 114 127c0 107 -104 128 -185 128c-79 0 -177 -34 -178 -131zM223 54c0 76 115 76 115 0s-115 -76 -115 0z" />
    <glyph glyph-name="questiondown" unicode="&#xbf;" horiz-adv-x="602" 
d="M383 450c0 -76 -115 -76 -114 0c0 76 115 76 114 0zM572 4l-1 -1c0 -150 -134 -209 -267 -208c-135 0 -270 50 -269 206c0 129 104 166 165 194c70 26 83 50 83 141h87c0 -137 -43 -179 -135 -212c-55 -22 -110 -46 -110 -123c0 -106 99 -127 180 -127
c79 0 176 33 178 130h89z" />
    <glyph glyph-name="quotedbl" unicode="&#x22;" horiz-adv-x="379" 
d="M148 701v-261h-74v261h74zM305 701v-261h-74v261h74z" />
    <glyph glyph-name="quotesingle" unicode="'" horiz-adv-x="223" 
d="M149 702v-262h-75v262h75z" />
    <glyph glyph-name="semicolon" unicode=";" horiz-adv-x="247" 
d="M178 341c0 -71 -107 -71 -107 -1c0 71 107 71 107 1zM104 -2h1c-20 5 -35 20 -35 45c0 70 107 68 107 -2c0 -9 -23 -70 -44 -134h-54z" />
    <glyph glyph-name="slash" unicode="/" horiz-adv-x="491" 
d="M380 762h86l-356 -844h-85z" />
    <glyph glyph-name="underscore" unicode="_" horiz-adv-x="606" 
d="M68 -16h470v-73h-470v73z" />
    <glyph glyph-name="bullet.case" horiz-adv-x="393" 
d="M198 226l-1 -1c-64 0 -112 43 -112 110c0 66 48 110 113 110c62 0 110 -44 110 -110s-48 -109 -110 -109z" />
    <glyph glyph-name="periodcentered.case" horiz-adv-x="258" 
d="M73 335c0 74 112 74 112 1c0 -74 -112 -74 -112 -1z" />
    <glyph glyph-name="braceleft" unicode="{" horiz-adv-x="330" 
d="M293 -136l-1 -1c-135 -22 -181 30 -181 149v144c0 47 -10 102 -75 102v63c65 0 75 55 75 102v138c0 119 50 174 181 149v-61c-77 15 -99 -10 -99 -91v-135c0 -57 1 -114 -70 -133c72 -19 71 -78 71 -133v-141c0 -81 19 -100 99 -89v-63z" />
    <glyph glyph-name="braceright" unicode="}" horiz-adv-x="329" 
d="M37 -77v-2c81 -12 100 7 100 88v141c0 56 -1 115 70 134c-72 20 -71 77 -71 134v134c0 81 -22 106 -99 91v62c131 24 181 -31 181 -150v-137c0 -47 10 -102 75 -102v-62c-65 0 -75 -55 -75 -102v-144c0 -119 -46 -171 -181 -149v64z" />
    <glyph glyph-name="bracketleft" unicode="[" horiz-adv-x="330" 
d="M86 712h208v-75h-124v-733h124v-76h-208v884z" />
    <glyph glyph-name="bracketright" unicode="]" horiz-adv-x="331" 
d="M245 -171h-208v76h124v733h-124v75h208v-884z" />
    <glyph glyph-name="parenleft" unicode="(" horiz-adv-x="339" 
d="M314 677c-120 -89 -182 -233 -183 -383c-1 -154 59 -295 183 -388l-44 -62c-151 98 -225 274 -225 446c0 171 76 345 227 445z" />
    <glyph glyph-name="parenright" unicode=")" horiz-adv-x="339" 
d="M67 737c151 -99 227 -273 227 -444c0 -172 -74 -348 -225 -447l-43 61c124 93 183 235 182 389c-1 150 -63 294 -183 383z" />
    <glyph glyph-name="braceleft.case" horiz-adv-x="341" 
d="M297 -78l-1 2c-135 -22 -181 30 -181 149v144c0 47 -10 102 -75 102v62c65 0 75 55 75 102v137c0 119 50 174 181 150v-62c-77 15 -99 -10 -99 -91v-134c0 -57 1 -114 -70 -134c72 -19 71 -78 71 -134v-141c0 -81 19 -100 99 -88v-64z" />
    <glyph glyph-name="braceright.case" horiz-adv-x="340" 
d="M44 -14v1c81 -12 100 7 100 87v142c0 56 -1 115 70 134c-72 20 -71 77 -71 133v135c0 81 -22 106 -99 91v61c131 24 181 -31 181 -149v-138c0 -47 10 -102 75 -102v-63c-65 0 -75 -55 -75 -102v-144c0 -119 -46 -171 -181 -149v63z" />
    <glyph glyph-name="bracketleft.case" horiz-adv-x="343" 
d="M91 790h208v-75h-124v-734h124v-76h-208v885z" />
    <glyph glyph-name="bracketright.case" horiz-adv-x="343" 
d="M252 -95h-208v76h124v734h-124v75h208v-885z" />
    <glyph glyph-name="parenleft.case" horiz-adv-x="350" 
d="M318 743c-120 -89 -182 -233 -183 -383c-1 -154 59 -295 183 -388l-44 -62c-151 98 -225 274 -225 446c0 171 76 345 227 445z" />
    <glyph glyph-name="parenright.case" horiz-adv-x="349" 
d="M73 803v-1c151 -99 227 -273 227 -443c0 -172 -74 -348 -225 -446l-43 63c124 93 183 233 182 387c-1 150 -63 294 -183 383z" />
    <glyph glyph-name="emdash" unicode="&#x2014;" horiz-adv-x="704" 
d="M72 323h560v-77h-560v77z" />
    <glyph glyph-name="endash" unicode="&#x2013;" horiz-adv-x="602" 
d="M72 323h458v-77h-458v77z" />
    <glyph glyph-name="hyphen" unicode="-" horiz-adv-x="496" 
d="M69 326h358v-78h-358v78z" />
    <glyph glyph-name="emdash.case" horiz-adv-x="708" 
d="M74 375h560v-77h-560v77z" />
    <glyph glyph-name="endash.case" horiz-adv-x="606" 
d="M74 373h458v-77h-458v77z" />
    <glyph glyph-name="hyphen.case" horiz-adv-x="504" 
d="M73 378h358v-79h-358v79z" />
    <glyph glyph-name="guillemotleft" unicode="&#xab;" horiz-adv-x="447" 
d="M182 517h88l-137 -220l137 -221h-88l-138 221zM175 297l138 220h88l-137 -220l137 -221h-88z" />
    <glyph glyph-name="guillemotright" unicode="&#xbb;" horiz-adv-x="447" 
d="M134 78h-87l136 220l-136 220h87l138 -220zM403 298l-138 -220h-87l136 220l-136 220h87z" />
    <glyph glyph-name="guilsinglleft" unicode="&#x2039;" horiz-adv-x="316" 
d="M44 298l138 220h88l-137 -220l137 -221h-88z" />
    <glyph glyph-name="guilsinglright" unicode="&#x203a;" horiz-adv-x="318" 
d="M185 297l-137 220h88l138 -220l-138 -221h-88z" />
    <glyph glyph-name="quotedblbase" unicode="&#x201e;" horiz-adv-x="387" 
d="M37 -115l47 194h88l-67 -194h-68zM183 -115l46 194h88l-67 -194h-67z" />
    <glyph glyph-name="quotedblleft" unicode="&#x201c;" horiz-adv-x="380" 
d="M187 698l-47 -193h-88l68 193h67zM333 698l-48 -193h-88l68 193h68z" />
    <glyph glyph-name="quotedblright" unicode="&#x201d;" horiz-adv-x="377" 
d="M58 511l47 190h88l-67 -190h-68zM204 511l46 190h88l-67 -190h-67z" />
    <glyph glyph-name="quoteleft" unicode="&#x2018;" horiz-adv-x="235" 
d="M188 701l-46 -191h-88l67 191h67z" />
    <glyph glyph-name="quoteright" unicode="&#x2019;" horiz-adv-x="230" 
d="M56 506l47 195h88l-67 -195h-68z" />
    <glyph glyph-name="quotesinglbase" unicode="&#x201a;" horiz-adv-x="242" 
d="M38 -115l46 194h88l-67 -194h-67z" />
    <glyph glyph-name="guillemotleft.case" horiz-adv-x="491" 
d="M197 557h88l-137 -220l137 -221h-88l-138 221zM196 337l139 220h87l-136 -220l136 -221h-87z" />
    <glyph glyph-name="guillemotright.case" horiz-adv-x="490" 
d="M155 122h-87l136 221l-136 220h87l138 -220zM431 343l-138 -221h-87l136 221l-136 220h87z" />
    <glyph glyph-name="guilsinglleft.case" horiz-adv-x="354" 
d="M58 344l138 220h88l-137 -220l137 -221h-88z" />
    <glyph glyph-name="guilsinglright.case" horiz-adv-x="354" 
d="M158 120h-88l137 221l-137 220h88l138 -220z" />
    <glyph glyph-name="space" unicode=" " horiz-adv-x="256" 
 />
    <glyph glyph-name="CR" unicode="&#xd;" horiz-adv-x="268" 
 />
    <glyph glyph-name=".null" horiz-adv-x="0" 
 />
    <glyph glyph-name="florin" unicode="&#x192;" horiz-adv-x="448" 
d="M152 417l1 -1h-97v72h97v39c0 113 62 179 166 179c40 0 78 -13 112 -36l-34 -61c-27 16 -48 25 -76 25c-53 0 -87 -33 -87 -107v-39h155v-72h-155v-418c0 -113 -54 -180 -158 -180c-40 0 -69 12 -103 35l33 60c25 -19 39 -24 66 -24c53 0 80 35 80 110v418z" />
    <glyph glyph-name="florin.tf" 
d="M294 417l-1 -1h-144v72h144v39c0 113 62 179 167 179c40 0 78 -13 111 -36l-33 -61c-27 16 -48 25 -76 25c-53 0 -87 -33 -87 -107v-39h170v-72h-170v-418c0 -113 -54 -180 -159 -180c-40 0 -69 12 -102 35l33 60c25 -19 39 -24 67 -24c53 0 80 35 80 110v418z" />
    <glyph glyph-name="Euro" unicode="&#x20ac;" horiz-adv-x="613" 
d="M576 8v-3c-39 -13 -82 -20 -123 -20c-206 0 -311 106 -344 263h-66v69h56c-1 4 -1 23 -1 27c0 10 0 21 1 31h-57v70h67c30 150 141 265 343 265c35 0 70 -6 104 -16l-25 -77c-26 7 -52 10 -77 10c-141 0 -222 -70 -252 -182h253l-17 -70h-253c-1 -9 -1 -20 -1 -29
c0 -7 0 -19 1 -26h238l-15 -69h-207c27 -111 109 -179 253 -179c32 0 66 6 98 18z" />
    <glyph glyph-name="cent" unicode="&#xa2;" horiz-adv-x="549" 
d="M272 -16h-1c-124 18 -217 112 -217 252c0 133 89 232 218 252v65h77v-65c54 -8 104 -32 146 -73l-51 -52c-35 34 -86 53 -131 53c-97 0 -177 -68 -177 -180c0 -114 80 -180 177 -180c45 0 95 23 130 57l52 -59c-41 -40 -91 -64 -146 -71v-71h-77v72z" />
    <glyph glyph-name="dollar" unicode="$" horiz-adv-x="668" 
d="M382 805v2v-95c88 -9 177 -41 222 -128l-72 -36c-33 58 -122 89 -194 90c-82 0 -191 -32 -189 -120c1 -78 90 -98 193 -115c140 -22 287 -44 287 -207c-1 -133 -129 -194 -248 -201v-99h-81v97c-107 7 -216 50 -264 151l76 36c35 -74 140 -109 224 -109
c88 0 205 33 205 126c1 87 -104 110 -209 127c-135 21 -268 45 -270 192c-2 130 124 185 238 194v95h82z" />
    <glyph glyph-name="sterling" unicode="&#xa3;" horiz-adv-x="652" 
d="M58 81l2 -1c87 66 101 132 91 207h-92v74h76c-10 39 -23 84 -23 132c0 142 104 215 246 215c127 0 229 -51 232 -194h-78c-3 93 -75 118 -154 118c-102 0 -163 -53 -163 -137c0 -45 11 -89 20 -132h240v-74h-224c10 -69 1 -153 -74 -212h438v-77h-537v81z" />
    <glyph glyph-name="yen" unicode="&#xa5;" horiz-adv-x="697" 
d="M147 210h156v57h-156v67h122l-239 363v3h100l216 -341l222 341h99v-3l-243 -363h123v-67h-159v-57h159v-66h-159v-144h-85v144h-156v66z" />
    <glyph glyph-name="approxequal" unicode="&#x2248;" horiz-adv-x="570" 
d="M129 337l-54 31c28 59 87 91 147 76l142 -47c42 -14 60 1 80 37l53 -25c-26 -61 -70 -101 -146 -75l-136 42c-36 13 -70 -5 -86 -39zM129 158l-54 31c28 59 86 91 146 76l142 -47c42 -14 61 1 81 37l53 -25c-26 -61 -71 -101 -147 -75l-136 42c-36 13 -70 -5 -85 -39z
" />
    <glyph glyph-name="asciitilde" unicode="~" horiz-adv-x="636" 
d="M506 361l62 -24c-32 -90 -101 -137 -195 -94l-129 63c-44 16 -87 18 -116 -58l-57 24c30 88 111 139 196 98l127 -62c49 -25 87 -8 112 53z" />
    <glyph glyph-name="divide" unicode="&#xf7;" horiz-adv-x="564" 
d="M230 495c0 71 107 71 107 0c0 -70 -107 -70 -107 0zM70 289h424v81h-424v-81zM230 159c0 71 107 71 107 0c0 -70 -107 -70 -107 0z" />
    <glyph glyph-name="equal" unicode="=" horiz-adv-x="560" 
d="M73 458h414v-77h-414v77zM73 247h414v-77h-414v77z" />
    <glyph glyph-name="greater" unicode="&#x3e;" horiz-adv-x="376" 
d="M331 330v-28l-220 -205l-54 54l179 165l-177 165l52 54z" />
    <glyph glyph-name="greaterequal" unicode="&#x2265;" horiz-adv-x="451" 
d="M375 434v-27l-241 -184l-47 52l197 145l-195 139l45 53zM382 91h-311v69h311v-69z" />
    <glyph glyph-name="increment" unicode="&#x2206;" horiz-adv-x="780" 
d="M753 0h-726l314 700h98zM159 80h461l-230 526z" />
    <glyph glyph-name="integral" unicode="&#x222b;" horiz-adv-x="467" 
d="M184 528l1 -1c0 113 62 179 166 179c40 0 78 -13 112 -36l-34 -61c-27 16 -48 25 -76 25c-53 0 -87 -33 -87 -107v-529c0 -113 -54 -180 -158 -180c-40 0 -69 12 -103 35l33 60c25 -19 39 -24 66 -24c53 0 80 35 80 110v529z" />
    <glyph glyph-name="less" unicode="&#x3c;" horiz-adv-x="374" 
d="M264 535l52 -56l-176 -163l179 -162l-55 -57l-219 205v28z" />
    <glyph glyph-name="lessequal" unicode="&#x2264;" horiz-adv-x="451" 
d="M318 612l44 -53l-195 -139l197 -145l-47 -52l-241 184v27zM70 160h310v-69h-310v69z" />
    <glyph glyph-name="logicalnot" unicode="&#xac;" horiz-adv-x="519" 
d="M441 164h-75v132h-293v75h368v-207z" />
    <glyph glyph-name="minus" unicode="&#x2212;" horiz-adv-x="529" 
d="M73 357h383v-79h-383v79z" />
    <glyph glyph-name="multiply" unicode="&#xd7;" horiz-adv-x="460" 
d="M119 484l110 -111l111 111l53 -52l-113 -114l115 -114l-52 -50l-113 114l-113 -114l-54 53l114 114l-112 111z" />
    <glyph glyph-name="notequal" unicode="&#x2260;" horiz-adv-x="554" 
d="M69 247h144l81 134h-225v77h271l44 73l39 -22l-31 -51h91v-77h-136l-81 -134h217v-77h-262l-45 -75l-40 23l31 52h-98v77z" />
    <glyph glyph-name="partialdiff" unicode="&#x2202;" horiz-adv-x="601" 
d="M299 64c113 0 170 87 170 175c0 87 -57 174 -170 174c-114 0 -171 -87 -171 -174c0 -88 57 -175 171 -175zM273 483c55 4 134 -11 182 -64c-36 104 -177 190 -278 213l18 67c231 -57 356 -210 358 -447c1 -154 -96 -262 -254 -262c-170 0 -255 123 -255 248
c0 118 76 235 229 245z" />
    <glyph glyph-name="percent" unicode="%" horiz-adv-x="744" 
d="M193 709c210 0 210 -304 0 -304c-209 0 -209 304 0 304zM550 702h92l-452 -702h-93zM193 644h-1c-117 0 -116 -173 2 -173c116 0 115 173 -1 173zM551 297h-1c210 0 210 -304 0 -304c-209 0 -209 304 1 304zM550 233c-117 0 -116 -175 0 -175c117 0 116 175 0 175z" />
    <glyph glyph-name="perthousand" unicode="&#x2030;" horiz-adv-x="1110" 
d="M196 709c210 0 210 -304 0 -304c-209 0 -209 304 0 304zM553 702h94l-452 -702h-95zM196 644h-1c-117 0 -116 -173 2 -173c116 0 115 173 -1 173zM554 297h-1c210 0 210 -304 0 -304c-209 0 -209 304 1 304zM920 297h-1c210 0 210 -304 0 -304c-209 0 -209 304 1 304z
M552 233c-117 0 -116 -175 0 -175c117 0 116 175 0 175zM919 233h1c-117 0 -116 -175 0 -175c117 0 116 175 -1 175z" />
    <glyph glyph-name="plus" unicode="+" horiz-adv-x="500" 
d="M47 383h162v161h80v-161h164v-77h-164v-165h-80v165h-162v77z" />
    <glyph glyph-name="plusminus" unicode="&#xb1;" horiz-adv-x="530" 
d="M71 410h154v157h80v-157h154v-76h-154v-158h-80v158h-154v76zM75 110h381v-76h-381v76z" />
    <glyph glyph-name="product" unicode="&#x220f;" horiz-adv-x="686" 
d="M506 -189v807h-326v-807h-89v889h504v-889h-89z" />
    <glyph glyph-name="radical" unicode="&#x221a;" horiz-adv-x="616" 
d="M367 0h-70l-166 344l-88 -38l-24 57l166 74l151 -340l210 617l57 -16z" />
    <glyph glyph-name="summation" unicode="&#x2211;" horiz-adv-x="585" 
d="M163 86h369v-86h-494v47l222 320l-207 295v38h473v-82h-340l173 -253z" />
    <glyph glyph-name="uni2215" unicode="&#x2215;" horiz-adv-x="446" 
d="M-6 -3l379 708h77l-379 -708h-77z" />
    <glyph glyph-name="uni2219" unicode="&#x2219;" horiz-adv-x="250" 
d="M69 312c0 74 112 74 112 1c0 -74 -112 -74 -112 -1z" />
    <glyph glyph-name="afii61289" unicode="&#x2113;" horiz-adv-x="401" 
d="M203 147c0 -60 58 -83 130 -66v-69c-125 -41 -231 -9 -231 151l-49 -24l-14 46c21 9 42 19 62 30v333c0 119 37 167 156 167c112 0 122 -102 110 -193c-13 -111 -85 -208 -164 -280v-95zM200 548c0 -56 -1 -165 -1 -237c49 56 110 143 120 220c6 51 14 132 -60 132
c-40 0 -59 -59 -59 -115z" />
    <glyph glyph-name="ampersand" unicode="&#x26;" horiz-adv-x="699" 
d="M484 523v2c0 89 -76 109 -159 109c-120 0 -170 -60 -169 -122c1 -91 103 -118 171 -118h311v-71h-62v-130c0 -60 17 -116 76 -115v-79c-55 -4 -106 19 -124 87c-49 -79 -129 -95 -203 -95c-162 0 -267 63 -267 207c0 74 58 137 126 160c-68 21 -113 85 -113 152
c0 127 112 197 256 197c117 0 239 -37 239 -184h-82zM497 324h-176c-119 0 -177 -66 -177 -124c0 -83 69 -131 179 -131c65 0 174 30 174 126v129z" />
    <glyph glyph-name="at" unicode="@" horiz-adv-x="903" 
d="M456 606c-183 0 -329 -130 -329 -328c0 -206 146 -316 326 -316c51 0 102 13 149 39l34 -59c-61 -37 -123 -50 -184 -50c-226 0 -401 142 -401 386c0 236 174 395 405 395c236 0 403 -138 403 -390c0 -92 -27 -173 -79 -215c-60 -49 -151 -31 -149 54
c-35 -63 -118 -96 -181 -96c-141 0 -253 107 -253 248c0 158 112 250 253 250c68 0 141 -36 173 -95l4 70l66 -6v-359c0 -34 35 -36 52 -13c31 32 44 99 44 163c0 221 -127 322 -333 322zM451 451c-104 0 -175 -66 -175 -176s71 -175 174 -175c116 0 174 85 174 177
c0 90 -57 174 -173 174z" />
    <glyph glyph-name="bar" unicode="|" horiz-adv-x="253" 
d="M167 726v-829h-81v829h81z" />
    <glyph glyph-name="brokenbar" unicode="&#xa6;" horiz-adv-x="260" 
d="M87 342v366h86v-366h-86zM173 276v-365h-86v365h86z" />
    <glyph glyph-name="copyright" unicode="&#xa9;" horiz-adv-x="832" 
d="M418 716v-1c231 0 361 -166 361 -364s-130 -365 -361 -365c-232 0 -365 167 -365 365c0 199 133 365 365 365zM129 350c0 -166 107 -298 289 -298s285 132 285 298s-103 298 -285 298s-289 -132 -289 -298zM572 486l-3 4c-38 38 -86 59 -140 59
c-112 0 -199 -79 -199 -196s88 -194 200 -194c55 0 103 21 141 59l-48 48c-26 -26 -56 -40 -92 -40c-71 0 -129 51 -129 125c0 76 58 127 130 127c35 0 66 -13 91 -38z" />
    <glyph glyph-name="dagger" unicode="&#x2020;" horiz-adv-x="568" 
d="M534 432h-206v-557h-87v557h-207v75h207v193h87v-193h206v-75z" />
    <glyph glyph-name="daggerdbl" unicode="&#x2021;" horiz-adv-x="613" 
d="M557 433h-207v-253h207v-75h-207v-234h-87v234h-207v75h207v253h-207v75h207v192h87v-192h207v-75z" />
    <glyph glyph-name="estimated" unicode="&#x212e;" horiz-adv-x="642" 
d="M556 104c-60 -85 -134 -111 -227 -111c-148 0 -268 102 -268 296c0 196 119 297 267 297s282 -80 262 -323h-402v-170c38 -35 88 -53 141 -53c78 0 142 24 190 93zM471 496c-37 29 -86 43 -143 43c-54 0 -102 -13 -140 -46v-183h283v186z" />
    <glyph glyph-name="paragraph" unicode="&#xb6;" horiz-adv-x="811" 
d="M356 621v-837h-82v401c-162 7 -242 132 -241 256c1 129 88 258 258 258h485v-78h-100v-836h-80v836h-240z" />
    <glyph glyph-name="registered" unicode="&#xae;" horiz-adv-x="828" 
d="M414 714c232 0 361 -166 361 -365c0 -198 -129 -365 -361 -365c-231 0 -361 167 -361 365c0 199 130 365 361 365zM129 349v2c0 -166 103 -298 285 -298s286 132 286 297c0 166 -104 298 -286 298s-285 -132 -285 -299zM483 306v-1c143 24 128 237 -35 237h-172v-375h69
v130h65l104 -130h76v14zM345 477h103c85 0 84 -121 -2 -121h-101v121z" />
    <glyph glyph-name="section" unicode="&#xa7;" horiz-adv-x="576" 
d="M446 595h-2c-46 37 -92 46 -150 46c-72 1 -140 -24 -139 -72c0 -53 79 -67 137 -73c100 -8 233 -31 225 -146c-3 -55 -43 -92 -95 -105c59 -17 97 -59 94 -114c-4 -116 -139 -149 -229 -149c-92 0 -182 31 -231 97l55 55c45 -55 112 -77 178 -76c62 0 139 20 142 76
c2 51 -67 64 -144 71c-107 7 -221 43 -220 143c0 42 33 91 91 110c-58 16 -89 58 -88 110c3 110 126 147 227 146c72 0 151 -19 202 -72zM432 350v-1c1 98 -284 112 -283 -1c-1 -97 283 -102 283 2z" />
    <glyph glyph-name="trademark" unicode="&#x2122;" horiz-adv-x="804" 
d="M387 701h70l98 -125l100 125h68v-286h-70l3 188l-95 -120h-14l-93 123l3 -191h-70v286zM169 642h-105v58h279v-58h-106v-227h-68v227z" />
    <glyph glyph-name="uni2117" unicode="&#x2117;" horiz-adv-x="828" 
d="M414 714c232 0 361 -166 361 -365c0 -198 -129 -365 -361 -365c-231 0 -361 167 -361 365c0 199 130 365 361 365zM129 349v2c0 -166 103 -298 285 -298s286 132 286 297c0 166 -104 298 -286 298s-285 -132 -285 -299zM461 275l-1 -1c181 0 173 257 2 257h-173v-376h70
v120h102zM358 466v-1h103c86 0 85 -131 -2 -131h-101v132z" />
    <glyph glyph-name="asciicircum" unicode="^" horiz-adv-x="609" 
d="M50 359l-1 5l223 337h62l226 -337l-1 -5h-89l-167 256l-167 -256h-86z" />
    <glyph glyph-name="arrowdown" unicode="&#x2193;" horiz-adv-x="508" 
d="M254 75l-222 222l43 45l142 -139v406h76v-406l142 137l41 -43z" />
    <glyph glyph-name="arrowleft" unicode="&#x2190;" horiz-adv-x="628" 
d="M35 351l222 221l45 -43l-140 -141h407v-76h-407l138 -143l-43 -40z" />
    <glyph glyph-name="arrowright" unicode="&#x2192;" horiz-adv-x="628" 
d="M593 351l-222 -222l-45 43l139 142h-406v76h406l-137 142l43 41z" />
    <glyph glyph-name="arrowup" unicode="&#x2191;" horiz-adv-x="510" 
d="M256 622l221 -223l-42 -44l-142 139v-406h-76v406l-143 -138l-40 44z" />
    <glyph glyph-name="uni2196" unicode="&#x2196;" horiz-adv-x="506" 
d="M65 539h315l1 -64h-199l288 -288l-54 -54l-287 288l-4 -198l-60 2v314z" />
    <glyph glyph-name="uni2197" unicode="&#x2197;" horiz-adv-x="507" 
d="M441 224l-64 -1v198l-287 -288l-54 54l288 288l-198 3l1 60h314v-314z" />
    <glyph glyph-name="uni2198" unicode="&#x2198;" horiz-adv-x="549" 
d="M449 159h-314l-2 60l199 4l-288 287l54 54l288 -287v198l63 -1v-315z" />
    <glyph glyph-name="uni2199" unicode="&#x2199;" horiz-adv-x="549" 
d="M100 474l64 1v-198l287 287l54 -54l-288 -287l199 -4l-2 -60h-314v315z" />
    <glyph glyph-name="lozenge" unicode="&#x25ca;" horiz-adv-x="571" 
d="M318 7h-67l-215 345l215 344h67l218 -344zM128 351l156 -266l163 266l-163 266z" />
    <glyph glyph-name="cent.tf" 
d="M343 -16h1c-124 18 -217 112 -217 252c0 133 89 232 217 252v65h77v-65c54 -8 104 -32 145 -73l-51 -52c-35 34 -86 53 -131 53c-97 0 -177 -68 -177 -180c0 -114 80 -180 177 -180c45 0 95 23 130 57l52 -59c-41 -40 -91 -64 -146 -71v-71h-77v72z" />
    <glyph glyph-name="dollar.tf" 
d="M393 803v-1v-94c87 -9 176 -42 221 -128l-74 -37c-33 58 -119 87 -191 87c-82 0 -189 -29 -187 -117c1 -78 88 -95 190 -111c139 -22 285 -46 285 -208c-1 -132 -128 -194 -245 -201v-98h-81v96c-106 7 -215 51 -262 151l79 36c35 -73 136 -106 220 -106
c87 0 199 31 199 124c1 87 -100 110 -204 127c-134 20 -266 44 -268 190c-2 130 124 186 237 196v94h81z" />
    <glyph glyph-name="Euro.tf" 
d="M615 8l2 -3c-39 -13 -82 -20 -123 -20c-206 0 -311 106 -345 263h-65v69h56c-1 4 -1 23 -1 27c0 10 0 21 1 31h-56v70h67c30 150 141 265 342 265c35 0 70 -6 103 -16l-25 -77c-26 7 -52 10 -78 10c-141 0 -222 -70 -252 -182h253l-17 -70h-253c-1 -9 -1 -20 -1 -29
c0 -7 0 -19 1 -26h238l-15 -69h-207c27 -111 109 -179 253 -179c32 0 66 6 97 18z" />
    <glyph glyph-name="sterling.tf" 
d="M79 363l1 -1h75c-10 39 -23 84 -23 132c0 142 104 215 246 215c127 0 229 -51 233 -194h-80c-3 90 -73 117 -153 117c-102 0 -160 -52 -160 -136c0 -45 12 -89 22 -132h235v-74h-220c10 -69 3 -147 -71 -206h432v-83h-537v81c87 66 101 132 91 207h-91v74z" />
    <glyph glyph-name="yen.tf" 
d="M145 210h155v57h-155v67h122l-238 363v3h104l212 -332l215 332h105v-3l-243 -363h124v-67h-157v-57h157v-66h-157v-144h-89v144h-155v66z" />
    <glyph glyph-name="bar.case" horiz-adv-x="266" 
d="M174 756v-832h-82v832h82z" />
    <glyph glyph-name="commaaccentcomb" unicode="&#x326;" horiz-adv-x="0" 
d="M223 -179h1c-20 5 -35 20 -35 45c0 70 107 68 107 -2c0 -9 -23 -70 -44 -134h-55z" />
    <glyph glyph-name="commaaccentcomb.alt" horiz-adv-x="502" 
d="M250 698v-1c20 -5 35 -20 35 -45c0 -70 -108 -68 -108 2c0 9 23 70 44 134h55z" />
    <glyph glyph-name="acute" unicode="&#xb4;" horiz-adv-x="231" 
d="M20 568v5l74 127h101v-3l-100 -129h-75z" />
    <glyph glyph-name="breve" unicode="&#x2d8;" horiz-adv-x="349" 
d="M304 700l-1 -3c4 -87 -58 -134 -137 -133c-80 0 -141 48 -137 135h66c0 -37 20 -71 71 -71c50 0 70 34 70 72h68z" />
    <glyph glyph-name="caron" unicode="&#x2c7;" horiz-adv-x="404" 
d="M27 694v7h85l86 -81l89 81h83v-7l-146 -135h-52z" />
    <glyph glyph-name="cedilla" unicode="&#xb8;" horiz-adv-x="335" 
d="M89 -68l-3 -1l26 91h61l-14 -55c87 1 109 -58 99 -107c-13 -56 -66 -82 -119 -81c-45 1 -90 20 -113 59l39 35c18 -25 45 -36 74 -35c25 0 49 11 56 34c11 37 -32 68 -89 47z" />
    <glyph glyph-name="circumflex" unicode="&#x2c6;" horiz-adv-x="423" 
d="M174 707h53l144 -134v-7h-85l-86 79l-85 -79h-85v7z" />
    <glyph glyph-name="dieresis" unicode="&#xa8;" horiz-adv-x="480" 
d="M57 667c0 71 107 71 107 1s-107 -70 -107 -1zM287 667c0 71 107 71 107 0c0 -70 -107 -70 -107 0z" />
    <glyph glyph-name="dotaccent" unicode="&#x2d9;" horiz-adv-x="202" 
d="M36 655c0 71 108 71 108 -1c0 -71 -108 -71 -108 1z" />
    <glyph glyph-name="grave" unicode="`" horiz-adv-x="235" 
d="M113 568l-100 129v3h100l75 -127v-5h-75z" />
    <glyph glyph-name="hungarumlaut" unicode="&#x2dd;" horiz-adv-x="389" 
d="M22 576l80 125h94v-2l-101 -123h-73zM176 575l80 126h94v-2l-102 -124h-72z" />
    <glyph glyph-name="macron" unicode="&#xaf;" horiz-adv-x="421" 
d="M35 702h334v-71h-334v71z" />
    <glyph glyph-name="ogonek" unicode="&#x2db;" horiz-adv-x="393" 
d="M242 -58l-1 1c-71 14 -131 -23 -115 -70c7 -19 28 -34 58 -33c24 1 53 13 73 38l46 -31c-23 -43 -70 -65 -116 -67c-60 -2 -108 27 -122 71c-19 54 14 152 162 131z" />
    <glyph glyph-name="ring" unicode="&#x2da;" horiz-adv-x="360" 
d="M47 609h1c0 71 58 108 117 108c58 0 118 -36 118 -107s-56 -109 -119 -109c-64 0 -117 38 -117 108zM165 664c-78 0 -78 -110 0 -110c81 0 79 110 0 110z" />
    <glyph glyph-name="tilde" unicode="&#x2dc;" horiz-adv-x="358" 
d="M30 659l-2 3c15 60 64 91 120 71c12 -3 46 -24 57 -27c21 -8 44 -4 54 27l55 -23c-16 -69 -70 -90 -117 -71c-12 3 -46 24 -56 26c-22 8 -46 3 -58 -30z" />
    <glyph glyph-name="_0004" horiz-adv-x="0" 
 />
    <glyph glyph-name="eth" unicode="&#xf0;" horiz-adv-x="601" 
d="M299 64c113 0 175 87 175 175c0 87 -62 174 -175 174c-114 0 -171 -87 -171 -174c0 -88 57 -175 171 -175zM273 483c55 4 131 -9 187 -70c-24 73 -95 129 -142 157l-37 -48l-44 29l34 47c-28 16 -64 27 -94 34l18 67c47 -11 87 -25 123 -43l45 60l45 -31l-42 -56
c137 -99 186 -227 187 -377c1 -154 -96 -262 -254 -262c-170 0 -255 123 -255 248c0 118 76 235 229 245z" />
    <glyph glyph-name="infinity" unicode="&#x221e;" horiz-adv-x="784" 
d="M220 166c-110 1 -165 79 -164 158c0 80 58 159 169 159c66 0 122 -53 167 -108c46 54 105 108 166 108c112 0 170 -79 170 -159c1 -79 -54 -157 -164 -158c-69 0 -124 50 -172 107c-47 -56 -101 -107 -172 -107zM222 234c50 0 84 37 117 72c6 7 10 12 16 18l-13 16
c-33 38 -69 77 -120 77c-70 0 -104 -51 -100 -99c3 -43 36 -82 100 -84zM562 234c69 2 101 47 101 92c-1 46 -34 91 -101 91c-51 0 -85 -41 -119 -79l-13 -14c5 -4 10 -10 15 -15h-1c34 -35 68 -75 118 -75z" />
    <glyph glyph-name="currency" unicode="&#xa4;" horiz-adv-x="605" 
d="M302 183c89 0 136 68 136 138c0 71 -47 140 -136 140c-88 0 -137 -69 -137 -140c0 -70 49 -138 137 -138zM190 146l-59 -59l-60 60l59 58c-47 70 -45 162 1 231l-60 59l60 61l59 -60c31 19 69 30 113 30c42 0 80 -11 111 -30l60 60l60 -61l-58 -58
c45 -70 45 -164 -1 -232l59 -58l-60 -60l-60 59c-31 -19 -70 -29 -112 -29c-43 0 -81 11 -112 29z" />
    <glyph glyph-name="degree" unicode="&#xb0;" horiz-adv-x="331" 
d="M166 670c-78 0 -82 -117 0 -117c78 0 77 117 0 117zM167 721c147 0 150 -218 1 -218c-157 0 -150 218 -1 218z" />
    <glyph glyph-name="_181" unicode="&#xb5;" horiz-adv-x="613" 
d="M525 0h-72l-7 61c-30 -57 -101 -84 -158 -82c-57 0 -128 19 -153 81v-282h-76v716h81v-291c0 -97 78 -151 152 -152c74 0 152 51 152 165v278h81v-494z" />
    <glyph glyph-name="Tcommaaccent" unicode="&#x162;" horiz-adv-x="603" 
d="M258 1v619h-240v79h567v-79h-240v-620h-27l-11 -43c88 1 110 -55 98 -105c-11 -47 -53 -72 -95 -78c-51 -8 -109 10 -137 57l39 35c24 -34 73 -41 95 -23c15 0 31 6 35 21c11 37 -33 68 -90 47l-17 13z" />
    <glyph glyph-name="uni00AD" unicode="&#xad;" horiz-adv-x="484" 
d="M48 326h358v-78h-358v78z" />
    <glyph glyph-name="tcommaaccent" unicode="&#x163;" horiz-adv-x="398" 
d="M132 629l82 9v-145h153v-70h-154v-237c0 -70 10 -118 79 -118c22 0 47 7 69 17l24 -68c-33 -15 -63 -23 -96 -24c-6 0 -11 0 -16 1l-12 -44c85 3 112 -48 100 -97c-13 -49 -61 -73 -111 -74c-47 -2 -98 16 -122 54l39 33c18 -23 43 -32 71 -33c27 0 53 9 59 31
c11 34 -32 59 -91 40l-14 13l25 88c-66 24 -85 87 -85 181v237h-99v70h99v136z" />
    <glyph glyph-name="asterisk.alt" horiz-adv-x="316" 
d="M51 508l49 60l-77 18c-31 10 -10 70 19 60l76 -26l-4 69c0 34 62 34 64 0l-4 -69l76 26c29 10 50 -50 19 -60l-77 -18l49 -60c28 -34 -34 -71 -52 -36l-43 63l-43 -63c-18 -35 -80 2 -52 36z" />
    </font>
</defs>
</svg>
